<?xml version="1.0" standalone="no"?>
<!DOCTYPE svg PUBLIC "-//W3C//DTD SVG 20010904//EN"
 "http://www.w3.org/TR/2001/REC-SVG-20010904/DTD/svg10.dtd">
<svg version="1.0" xmlns="http://www.w3.org/2000/svg"
 width="832.000000pt" height="832.000000pt" viewBox="0 0 832.000000 832.000000"
 preserveAspectRatio="xMidYMid meet">
<metadata>
Created by potrace 1.11, written by Peter Selinger 2001-2013
</metadata>
<g transform="translate(0.000000,832.000000) scale(0.100000,-0.100000)"
fill="#000000" stroke="none">
<path d="M3440 7325 c-1 -5 -1 -14 0 -20 1 -5 -2 -7 -6 -2 -4 4 -18 0 -32 -9
-15 -10 -21 -11 -17 -3 6 8 4 10 -4 5 -7 -5 -10 -15 -7 -23 3 -8 2 -11 -4 -8
-11 7 -35 -34 -31 -54 1 -7 -2 -10 -7 -7 -5 3 -7 -5 -5 -18 4 -16 -5 -31 -31
-54 -34 -29 -75 -35 -59 -8 5 8 3 8 -8 0 -8 -6 -24 -10 -36 -9 -18 1 -20 -1
-11 -12 6 -8 7 -13 2 -12 -22 4 -34 -2 -34 -16 0 -9 -7 -18 -15 -21 -13 -5
-13 -9 -3 -22 11 -13 11 -14 -1 -7 -11 6 -13 4 -8 -8 4 -10 2 -17 -5 -17 -7 0
-7 -4 0 -12 13 -16 13 -30 0 -45 -6 -7 -6 -13 -1 -13 15 0 14 -49 -3 -88 -9
-20 -16 -54 -15 -74 0 -21 -4 -38 -10 -38 -5 0 -8 -4 -5 -8 3 -5 -1 -9 -9 -9
-8 0 -11 5 -8 11 4 6 0 5 -9 -1 -8 -7 -18 -10 -22 -6 -4 4 -9 -3 -13 -15 -3
-12 -10 -22 -15 -22 -5 0 -6 -4 -3 -10 3 -5 3 -16 -2 -22 -19 -31 -19 -116 -1
-135 9 -8 12 -27 10 -48 -3 -28 -9 -35 -26 -35 -23 -1 -40 -13 -71 -49 -12
-15 -14 -21 -5 -16 13 8 13 6 2 -8 -8 -9 -10 -22 -6 -28 4 -8 3 -9 -4 -5 -8 5
-12 0 -12 -13 0 -10 -3 -27 -7 -37 -4 -10 -2 -15 3 -11 6 3 9 -9 9 -28 -1 -19
2 -32 7 -29 4 3 8 -2 8 -10 0 -9 5 -16 11 -16 6 0 8 -7 5 -16 -3 -8 -2 -12 4
-9 6 3 10 0 10 -7 -1 -15 -30 -57 -30 -42 0 5 -18 9 -40 9 -31 1 -39 -3 -35
-14 4 -11 3 -12 -10 -1 -10 8 -15 9 -15 2 0 -6 -10 -21 -22 -33 -13 -12 -16
-18 -8 -14 13 8 13 6 1 -8 -7 -9 -11 -26 -8 -37 3 -11 0 -20 -6 -20 -7 0 -5
-5 3 -10 13 -9 13 -10 0 -10 -10 0 -11 -3 -4 -8 6 -4 9 -16 7 -27 -2 -11 -6
-39 -9 -62 -6 -42 -17 -55 -27 -30 -4 9 -6 9 -6 -1 -1 -10 -6 -10 -23 -1 -21
11 -22 11 -9 -5 12 -14 12 -16 0 -12 -17 7 -53 -19 -45 -32 3 -5 -3 -18 -13
-28 -13 -15 -16 -26 -10 -42 6 -16 5 -21 -3 -16 -7 5 -9 -1 -4 -19 4 -16 1
-27 -7 -30 -9 -4 -9 -6 1 -6 6 -1 12 -9 12 -19 0 -10 4 -22 9 -28 6 -5 4 -21
-4 -39 -8 -19 -14 -24 -14 -13 -1 11 -6 15 -16 12 -8 -4 -15 -2 -15 3 0 5 -7
10 -15 10 -8 0 -12 -4 -9 -9 3 -4 1 -8 -5 -8 -5 0 -12 6 -14 13 -4 9 -6 9 -6
-1 -1 -7 -6 -10 -12 -7 -15 10 -49 -24 -42 -43 4 -10 2 -13 -5 -8 -7 4 -15 -7
-21 -31 -12 -46 -12 -113 0 -113 4 0 6 -6 3 -14 -3 -8 0 -17 5 -21 6 -3 8 -12
4 -18 -4 -7 1 -5 12 3 17 14 18 14 1 -18 -14 -26 -19 -30 -30 -20 -8 7 -11 18
-8 23 3 6 -3 3 -13 -5 -10 -8 -16 -10 -12 -4 4 6 -2 19 -13 29 -19 17 -20 17
-21 -1 0 -18 -1 -18 -9 1 -5 11 -9 14 -9 7 -1 -6 -4 -11 -8 -10 -15 4 -53 -23
-53 -37 0 -8 -5 -15 -12 -15 -6 0 -9 -3 -5 -6 3 -4 -1 -13 -9 -21 -8 -9 -13
-22 -10 -29 3 -8 1 -14 -5 -14 -6 0 -8 -4 -5 -9 6 -10 -24 -25 -32 -16 -3 3 1
5 8 5 8 0 4 8 -9 19 -20 17 -21 22 -9 43 7 13 17 26 22 29 5 4 6 16 3 28 -3
12 0 21 6 21 8 0 8 3 2 8 -6 4 -10 17 -9 29 1 12 -3 20 -7 17 -5 -3 -9 1 -9 9
0 20 -47 60 -64 54 -8 -3 -20 0 -26 8 -13 15 -44 9 -34 -7 3 -5 -3 -4 -14 3
-12 7 -18 17 -16 21 3 4 1 8 -4 8 -16 0 -1 40 18 53 10 6 15 17 12 25 -3 9 -1
13 5 9 6 -4 13 2 16 13 3 13 1 18 -6 14 -8 -5 -7 -2 1 7 15 16 16 33 1 23 -8
-5 -9 -2 -1 11 5 11 6 26 2 34 -14 25 -23 55 -21 64 1 5 -3 6 -9 2 -5 -3 -13
2 -17 12 -4 10 -10 21 -15 24 -5 3 -1 12 8 20 16 12 17 12 10 -1 -4 -9 -1 -8
7 3 15 18 32 24 22 7 -4 -7 3 -8 21 -4 21 5 25 4 20 -7 -4 -8 -2 -7 6 2 7 9
19 14 26 12 6 -3 12 2 12 11 0 9 4 16 8 16 5 0 14 23 20 51 14 60 15 82 4 75
-5 -3 -8 5 -7 17 3 31 -5 47 -22 47 -8 0 -11 5 -8 10 3 6 1 10 -4 10 -6 0 -11
8 -11 17 0 9 -3 13 -6 10 -4 -4 -16 3 -26 15 -11 13 -15 24 -9 26 6 2 9 8 5
13 -3 5 7 4 23 -1 25 -9 26 -9 10 4 -17 13 -16 14 7 12 13 0 22 -5 19 -9 -3
-5 4 -3 15 4 11 7 18 19 15 26 -3 7 0 13 6 13 6 0 10 6 9 13 -2 6 2 11 9 10 6
-1 17 12 23 30 19 49 21 67 7 67 -8 0 -8 3 -1 8 16 11 13 62 -4 62 -8 0 -12 6
-9 14 6 15 -22 46 -42 46 -7 0 -9 5 -5 12 5 8 2 9 -9 5 -12 -4 -17 -1 -17 11
0 13 -2 14 -9 3 -10 -16 -34 -5 -25 12 3 7 0 5 -8 -3 -7 -8 -19 -16 -27 -18
-12 -3 -12 0 -1 13 11 13 10 14 -6 8 -17 -6 -16 -4 3 21 13 15 19 34 16 43 -4
10 -2 14 4 10 15 -10 24 18 10 32 -8 8 -8 11 1 11 10 0 10 5 2 20 -6 11 -7 20
-2 20 4 0 8 9 8 20 0 11 -4 20 -9 20 -4 0 -6 4 -2 10 8 13 -17 50 -34 50 -8 0
-12 3 -8 6 13 13 -21 32 -56 31 -20 -1 -37 -4 -37 -7 0 -4 -7 -7 -15 -7 -8 0
-12 4 -9 9 3 4 -2 8 -10 8 -8 0 -24 21 -36 47 -11 26 -26 51 -33 55 -9 6 -9 8
0 8 6 0 10 9 8 20 -2 11 2 20 8 20 8 0 9 3 1 8 -6 4 -11 27 -13 51 -1 30 -9
50 -22 61 -10 10 -19 23 -19 29 0 7 -4 9 -10 6 -5 -3 -10 -2 -10 3 0 12 -43
10 -52 -3 -5 -6 -8 -5 -8 4 0 11 -3 11 -17 0 -15 -12 -16 -12 -8 1 4 8 -1 6
-12 -5 -11 -11 -18 -25 -16 -31 2 -6 -6 -10 -18 -9 -13 1 -25 7 -27 13 -2 7
-8 10 -12 7 -5 -3 -11 -1 -15 5 -3 5 -1 10 5 10 6 0 8 5 3 13 -4 6 -7 21 -8
33 0 11 -6 28 -13 37 -8 9 -11 21 -7 27 3 5 2 10 -3 10 -4 0 -19 10 -32 22
-15 14 -22 17 -18 7 4 -11 0 -15 -16 -15 -11 1 -24 6 -28 11 -5 6 -8 4 -8 -5
0 -13 -1 -13 -10 0 -6 9 -10 11 -10 3 0 -7 -7 -10 -16 -6 -10 4 -17 -1 -21
-16 -3 -11 -10 -18 -15 -15 -5 3 -8 -2 -6 -12 2 -14 -3 -19 -19 -18 -94 3
-114 5 -109 13 9 13 -46 71 -72 76 -13 2 -22 -1 -22 -8 0 -7 -5 -4 -11 7 -11
17 -12 17 -34 -8 -12 -14 -25 -23 -28 -19 -4 3 -9 -2 -13 -11 -10 -25 -89 -22
-117 5 -12 12 -16 18 -8 14 9 -5 12 -4 7 3 -4 7 -14 12 -22 12 -7 0 -19 8 -25
18 -17 28 -50 8 -90 -55 -19 -29 -38 -53 -44 -53 -5 -1 -23 -3 -40 -5 -16 -1
-25 -1 -19 1 11 5 -31 55 -70 84 -18 13 -19 13 -11 0 8 -13 7 -13 -8 -1 -13
10 -17 10 -17 1 0 -9 -4 -9 -17 1 -11 10 -14 10 -9 2 4 -8 2 -13 -4 -13 -7 0
-9 -7 -6 -16 3 -8 2 -12 -4 -9 -6 3 -10 1 -10 -5 0 -6 -4 -9 -9 -6 -5 3 -11
-7 -14 -23 -5 -25 -10 -28 -45 -28 -21 0 -51 -3 -65 -7 -23 -5 -29 -2 -37 16
-5 13 -9 17 -9 10 -1 -6 -4 -11 -8 -11 -22 4 -33 -2 -27 -13 5 -7 2 -9 -9 -5
-9 3 -21 -1 -29 -11 -11 -13 -11 -15 2 -7 12 7 13 6 3 -7 -7 -8 -9 -19 -5 -24
4 -4 0 -3 -8 3 -13 10 -16 8 -17 -15 -3 -49 -11 -78 -32 -120 -12 -23 -21 -49
-21 -59 0 -10 -9 -24 -21 -31 -17 -11 -20 -11 -14 0 3 7 0 5 -8 -5 -9 -10 -18
-18 -21 -18 -20 3 -26 0 -21 -9 3 -5 1 -10 -5 -10 -6 0 -9 -4 -6 -9 3 -5 -1
-12 -10 -15 -8 -3 -12 -10 -9 -16 3 -5 3 -10 -2 -10 -12 0 -3 -92 11 -109 8
-11 8 -13 -1 -8 -8 5 -8 1 0 -18 7 -14 18 -25 25 -25 7 0 10 -4 7 -10 -3 -5
-1 -10 4 -10 7 0 10 -17 8 -41 -2 -28 2 -46 15 -61 20 -23 19 -23 23 -55 2
-17 -3 -23 -19 -23 -17 0 -18 -2 -6 -10 13 -8 12 -10 -4 -10 -12 0 -16 -5 -13
-15 4 -8 1 -17 -5 -21 -7 -4 -6 -9 3 -15 12 -7 12 -9 0 -9 -10 0 -11 -3 -3
-13 7 -8 7 -18 2 -27 -6 -9 -5 -17 3 -22 9 -6 9 -8 0 -8 -8 0 -5 -14 9 -40 12
-21 25 -37 30 -34 4 3 8 0 8 -5 0 -6 9 -11 21 -11 13 0 18 -4 13 -12 -5 -8 0
-7 11 2 11 9 16 10 11 3 -4 -7 -2 -13 3 -13 6 0 11 6 11 13 0 8 4 7 10 -3 5
-8 10 -10 10 -4 0 6 11 16 24 22 34 15 36 8 24 -85 -1 -7 -6 -13 -12 -13 -6 0
-4 -5 4 -10 12 -8 12 -12 2 -18 -8 -5 -10 -16 -6 -27 5 -13 4 -16 -5 -10 -10
6 -11 3 -2 -12 6 -11 7 -23 4 -27 -3 -3 -1 -6 5 -6 7 0 12 -5 12 -11 0 -5 -6
-7 -12 -3 -9 5 -9 3 1 -9 7 -9 17 -14 22 -11 5 3 9 -2 9 -12 0 -13 3 -14 14
-5 12 10 18 7 33 -16 10 -15 26 -37 36 -48 20 -22 33 -62 23 -72 -3 -3 -1 -12
5 -20 9 -10 8 -13 -1 -13 -9 0 -10 -3 -1 -13 6 -8 8 -17 4 -20 -9 -10 -10 -56
-1 -51 4 3 8 -2 8 -11 0 -8 10 -20 23 -25 12 -5 15 -9 8 -9 -18 -1 -3 -18 30
-35 13 -6 34 -33 48 -59 21 -41 22 -50 10 -58 -12 -7 -12 -9 1 -9 12 0 13 -2
1 -9 -7 -5 -10 -14 -6 -20 4 -7 1 -18 -5 -26 -10 -11 -10 -15 -1 -15 7 0 10
-4 6 -9 -3 -5 2 -16 10 -25 9 -8 16 -18 15 -21 -1 -20 1 -25 9 -21 5 3 11 -1
15 -9 3 -8 14 -15 24 -15 10 0 24 -6 31 -12 11 -11 12 -10 6 2 -6 11 -5 12 4
4 6 -5 13 -36 16 -68 3 -32 8 -63 11 -68 4 -7 2 -8 -4 -4 -15 9 -15 1 -1 -26
8 -15 8 -19 0 -14 -6 4 -11 2 -11 -3 0 -6 4 -11 10 -11 5 0 9 -3 9 -7 -3 -19
3 -32 27 -59 14 -16 34 -47 46 -69 11 -22 28 -48 38 -57 12 -11 16 -27 14 -48
-3 -23 0 -29 9 -24 8 5 7 2 -2 -9 -9 -12 -10 -17 -2 -17 7 0 10 -4 6 -9 -3 -6
1 -13 9 -18 14 -8 16 -11 16 -35 0 -9 4 -8 10 2 8 12 10 10 11 -10 0 -14 3
-19 6 -13 3 10 8 9 20 -2 8 -8 19 -13 24 -10 5 4 9 0 9 -7 0 -9 3 -9 10 2 6
10 10 11 10 3 0 -7 6 -13 14 -13 17 0 31 -33 17 -38 -6 -2 -11 -11 -11 -21 0
-9 -5 -22 -12 -29 -9 -9 -9 -12 0 -12 8 0 9 -7 2 -25 -6 -16 -6 -25 0 -25 5 0
7 -7 4 -15 -3 -8 6 -26 20 -40 14 -14 25 -27 23 -30 -1 -2 8 -13 19 -24 17
-15 24 -17 34 -8 10 9 11 9 6 0 -5 -9 2 -13 24 -13 18 0 29 -4 25 -10 -3 -5
-2 -10 4 -10 6 0 9 -13 8 -30 -1 -16 -6 -30 -10 -30 -5 0 -5 -4 -2 -10 3 -5 2
-10 -4 -10 -12 0 -5 -81 7 -89 5 -3 12 -16 16 -28 4 -13 13 -22 19 -20 7 1 11
-4 10 -10 -2 -7 6 -13 17 -13 11 0 23 -7 26 -15 4 -8 10 -15 16 -15 5 0 6 5 2
11 -4 8 0 7 15 -1 12 -6 19 -15 16 -20 -3 -5 -1 -12 5 -15 11 -7 10 -75 -1
-75 -9 0 -6 -21 5 -39 7 -10 5 -12 -5 -6 -8 5 -5 -2 6 -15 11 -13 14 -20 8
-16 -8 4 -6 -5 4 -23 10 -16 21 -27 25 -25 5 3 8 -1 8 -9 0 -13 24 -28 63 -41
9 -3 17 -14 17 -24 0 -11 7 -25 16 -32 20 -17 35 -47 44 -86 6 -27 5 -31 -8
-27 -11 5 -14 1 -10 -14 4 -14 1 -20 -10 -19 -13 1 -17 -12 -18 -67 -1 -55 3
-74 20 -100 12 -17 25 -31 29 -29 13 5 44 -32 51 -61 4 -19 3 -26 -4 -22 -5 3
-10 -1 -10 -10 0 -9 -4 -14 -9 -10 -5 3 -16 -4 -24 -15 -7 -11 -17 -17 -21
-13 -4 4 -4 -1 0 -11 5 -14 4 -17 -4 -12 -7 4 -12 1 -12 -8 0 -9 -4 -16 -9
-16 -4 0 -7 -14 -5 -31 3 -22 0 -28 -9 -23 -8 6 -8 3 1 -9 8 -9 11 -21 7 -27
-3 -5 -2 -10 4 -10 5 0 8 -9 6 -20 -2 -11 1 -23 7 -26 7 -5 8 -2 3 6 -5 8 -4
11 2 7 10 -6 22 -70 28 -154 2 -29 -1 -41 -8 -36 -6 4 -8 0 -4 -10 4 -12 2
-14 -10 -10 -10 4 -14 2 -10 -4 4 -6 3 -13 -3 -15 -5 -1 -11 -12 -13 -23 -1
-11 -6 -25 -10 -32 -4 -6 -2 -15 4 -19 8 -5 9 -3 4 6 -6 9 -4 11 5 5 10 -6 9
-11 -5 -22 -11 -7 -14 -13 -8 -13 6 0 9 -15 7 -35 -2 -27 1 -35 14 -35 14 0
14 -2 3 -9 -11 -7 -10 -10 4 -18 16 -9 16 -13 4 -39 -9 -18 -24 -30 -38 -32
-19 -3 -21 -6 -10 -13 9 -5 10 -9 2 -9 -6 0 -15 4 -18 10 -6 10 -7 9 -50 -28
-12 -9 -14 -12 -6 -7 12 9 12 7 1 -12 -8 -12 -17 -20 -20 -18 -3 2 -12 -24
-20 -58 -16 -76 -48 -140 -63 -130 -7 4 -5 -2 3 -12 14 -17 14 -18 -8 -6 -18
9 -22 9 -20 -1 2 -7 -2 -12 -9 -11 -6 1 -17 -5 -25 -14 -11 -14 -11 -16 2 -8
13 8 13 7 0 -10 -8 -10 -15 -21 -15 -24 0 -3 -6 -5 -12 -3 -9 2 -12 -9 -9 -38
3 -28 1 -38 -7 -33 -7 3 -3 -4 8 -17 11 -13 14 -20 8 -16 -7 4 -13 2 -13 -3 0
-6 5 -11 11 -11 5 0 7 -5 4 -10 -3 -6 1 -13 9 -16 9 -3 14 -10 11 -14 -3 -4 2
-13 10 -20 8 -7 15 -20 15 -29 0 -14 2 -14 10 -1 7 11 8 9 6 -11 -1 -13 -5
-29 -8 -35 -4 -5 -3 -16 2 -24 5 -9 4 -20 -3 -29 -10 -12 -9 -14 8 -7 16 6 18
5 8 -5 -7 -7 -13 -16 -13 -20 0 -7 47 -2 61 6 4 3 9 -4 12 -15 3 -11 1 -17 -4
-14 -5 3 -13 -5 -18 -18 -6 -13 -10 -18 -11 -13 0 6 -4 3 -10 -5 -6 -9 -5 -20
3 -29 9 -12 9 -13 0 -7 -12 6 -18 -5 -14 -26 0 -5 -3 -8 -7 -8 -5 0 -8 -10 -7
-23 1 -12 -2 -28 -8 -34 -6 -9 -5 -13 4 -13 10 0 10 -3 1 -12 -9 -9 -8 -16 5
-30 11 -13 12 -18 3 -18 -10 0 -10 -3 0 -15 7 -8 17 -12 24 -8 6 3 8 3 4 -2
-4 -4 0 -14 10 -22 9 -8 11 -11 3 -7 -9 5 -12 3 -7 -4 4 -7 14 -12 22 -12 10
0 12 5 8 13 -6 9 -4 9 8 -1 12 -9 18 -10 23 -2 5 8 11 8 21 -1 11 -9 14 -9 14
0 0 7 5 9 12 5 8 -5 9 -2 5 9 -4 10 -2 16 6 14 7 -1 11 4 10 11 -2 6 4 12 13
12 9 0 13 5 9 13 -4 6 3 2 14 -11 15 -17 20 -36 19 -67 -1 -24 -6 -41 -12 -38
-5 4 -6 1 0 -8 4 -8 10 -23 11 -34 2 -10 9 -23 16 -27 9 -6 8 -8 -3 -8 -9 0
-11 -3 -5 -8 6 -4 10 -14 10 -22 0 -8 -4 -18 -10 -22 -6 -5 -5 -8 4 -8 11 0
11 -3 0 -17 -10 -11 -10 -14 -1 -9 8 5 12 0 12 -15 0 -12 8 -31 17 -42 10 -11
12 -17 6 -13 -9 5 -11 2 -7 -8 3 -9 10 -14 14 -11 5 3 10 0 12 -5 6 -18 95
-15 113 4 9 9 13 16 9 16 -17 0 32 29 49 30 14 0 16 -4 8 -17 -7 -13 -5 -23 7
-37 9 -11 12 -16 6 -13 -15 9 -15 -73 0 -92 8 -12 8 -13 -2 -7 -11 7 -11 4 0
-13 7 -12 16 -21 20 -21 5 0 8 -4 8 -10 0 -5 12 -21 26 -36 18 -17 25 -20 20
-9 -5 14 -4 16 7 6 17 -13 54 3 84 35 10 11 14 13 8 4 -9 -13 -8 -13 7 -2 9 7
15 24 13 37 -1 14 2 25 6 25 5 0 9 9 9 20 0 13 7 20 20 20 18 0 19 -3 9 -21
-8 -15 -8 -19 0 -15 11 7 15 -5 11 -38 -1 -10 2 -16 7 -13 5 3 9 -6 9 -21 -1
-16 4 -26 12 -25 6 2 12 -6 12 -17 0 -11 7 -20 16 -20 8 0 13 -4 10 -9 -3 -5
1 -12 10 -15 10 -4 13 -2 8 7 -5 8 -2 7 9 -2 13 -10 20 -11 30 -2 8 6 17 8 20
4 7 -6 11 12 8 30 -1 5 2 6 7 3 5 -3 18 2 28 10 10 9 12 13 4 9 -8 -4 -4 3 10
15 14 12 18 19 10 15 -8 -4 -6 1 5 10 12 9 21 11 23 5 2 -5 8 -10 13 -10 6 0
8 4 5 8 -3 5 1 9 9 9 8 0 15 -7 15 -14 0 -8 5 -11 10 -8 6 4 8 10 6 14 -3 4 1
8 9 8 8 0 15 -5 15 -11 0 -6 5 -4 10 4 8 12 10 12 10 1 0 -11 5 -9 22 5 12 10
18 13 14 6 -6 -11 0 -13 27 -11 20 2 40 -1 44 -5 5 -5 2 -6 -6 -1 -10 6 -12 4
-6 -5 7 -11 10 -10 19 1 6 8 18 13 28 11 9 -2 19 2 23 7 4 7 -1 8 -12 4 -15
-6 -16 -4 -5 9 7 9 11 27 8 41 -3 19 -1 24 10 20 8 -3 14 -12 14 -20 0 -8 4
-12 8 -9 4 2 9 -5 10 -17 1 -12 3 -35 4 -50 2 -16 11 -34 21 -41 9 -7 17 -19
17 -25 0 -7 5 -9 10 -6 6 3 10 1 10 -5 0 -6 5 -8 10 -5 6 3 10 1 10 -4 0 -6
11 -10 24 -9 14 1 22 6 20 10 -5 8 11 12 29 9 5 -1 7 2 4 6 -5 11 30 43 38 35
3 -4 3 1 -1 11 -3 9 -2 17 4 17 5 0 8 11 7 25 -2 14 1 25 6 25 6 0 7 6 2 13
-12 20 -12 37 0 37 7 0 5 5 -3 10 -10 6 -11 10 -2 10 6 0 12 7 12 15 0 8 5 15
11 15 5 0 7 -5 4 -10 -3 -6 0 -13 9 -16 8 -3 13 -14 11 -25 -2 -11 2 -22 10
-25 7 -3 12 -11 9 -19 -3 -7 2 -15 11 -19 10 -3 15 -12 11 -21 -3 -8 0 -17 6
-21 7 -5 8 -2 3 6 -5 9 -4 11 3 6 7 -4 12 -13 12 -20 0 -8 9 -16 20 -19 11 -3
20 -1 20 4 0 5 5 9 11 9 5 0 7 -6 3 -12 -5 -9 -2 -9 9 1 14 11 17 11 17 0 1
-8 6 -4 13 9 7 12 16 20 20 17 4 -3 5 -2 2 2 -3 3 1 16 8 27 8 12 15 53 16 96
1 41 4 83 7 92 5 16 6 16 24 1 10 -9 17 -20 14 -25 -3 -4 2 -8 11 -8 8 0 18
-7 22 -16 3 -8 12 -13 19 -10 8 3 14 0 14 -6 0 -6 6 -5 17 3 11 10 14 10 9 2
-4 -7 -2 -13 3 -13 6 0 11 4 11 10 0 5 3 9 8 9 20 -3 32 3 32 17 0 8 4 13 9
10 10 -7 29 34 25 57 -1 9 1 15 6 12 4 -3 10 11 12 30 2 19 1 35 -4 35 -4 0
-4 7 -1 17 5 12 3 14 -7 8 -10 -6 -12 -4 -7 7 3 9 0 21 -6 27 -6 6 -7 11 -3
11 4 0 -5 12 -20 28 -36 33 -41 57 -14 59 13 1 18 -2 13 -10 -8 -13 28 12 39
28 4 5 2 13 -5 17 -9 6 -8 8 2 8 10 0 11 3 2 14 -9 11 -9 16 -1 21 7 4 10 18
7 31 -2 13 0 24 5 24 13 0 33 21 41 43 4 10 11 15 17 12 6 -4 7 1 3 10 -3 10
0 21 8 26 8 5 9 9 2 9 -6 0 -9 9 -5 22 3 13 1 19 -5 15 -7 -5 -9 0 -6 13 3 12
0 20 -6 20 -7 0 -9 5 -6 10 3 6 1 10 -6 10 -7 0 -10 3 -7 6 7 6 -49 63 -63 65
-20 3 -25 5 -36 12 -6 4 -14 1 -17 -5 -5 -10 -7 -10 -12 0 -3 6 -13 12 -22 13
-10 0 -12 3 -5 5 7 3 10 11 7 19 -3 7 0 16 5 20 6 3 9 11 6 16 -4 5 -2 9 4 9
6 0 8 7 5 15 -4 9 0 15 7 15 10 0 11 3 3 8 -7 4 -12 18 -12 32 0 45 -2 51 -14
44 -10 -5 -10 -4 -1 6 9 10 9 19 -3 41 -8 16 -17 29 -20 29 -2 0 0 -10 7 -21
6 -12 7 -19 1 -15 -5 3 -15 19 -22 36 -11 26 -15 28 -28 18 -9 -7 -13 -8 -9
-2 4 7 -2 10 -18 8 -24 -2 -55 18 -55 36 0 5 12 18 28 30 15 12 20 19 12 15
-8 -4 -6 1 4 9 15 12 16 16 5 16 -9 0 -10 3 -4 8 6 4 11 18 10 32 0 14 5 28
10 32 6 5 5 8 -3 8 -7 0 -10 5 -6 11 3 6 0 15 -7 20 -10 6 -11 9 -1 9 20 0 14
18 -9 25 -11 4 -18 9 -15 12 11 11 -16 45 -30 39 -8 -3 -12 -2 -9 3 3 5 1 12
-4 15 -5 4 -13 1 -17 -5 -5 -9 -11 -7 -21 6 -9 14 -13 15 -13 4 0 -12 -2 -12
-10 1 -12 19 -13 53 -1 45 5 -3 13 0 17 6 4 8 9 7 15 -2 6 -10 9 -11 9 -1 0 6
7 12 15 12 8 0 15 6 15 13 0 8 3 8 9 -2 7 -11 13 -7 25 18 9 17 21 31 27 31 8
0 7 5 -1 15 -10 12 -9 16 3 21 12 4 14 17 11 57 -3 29 -6 58 -6 64 -1 7 -3 11
-6 9 -2 -3 -17 9 -33 25 -16 16 -29 27 -29 23 0 -4 -8 0 -18 9 -12 11 -22 13
-28 7 -7 -7 -16 -4 -27 8 -27 30 -2 43 96 51 5 1 5 6 2 11 -3 6 -1 10 4 10 6
0 11 7 11 15 0 9 6 18 13 20 17 7 21 95 5 95 -10 0 -9 3 1 9 19 12 6 59 -25
88 -13 12 -24 27 -24 33 0 5 -4 10 -10 10 -5 0 -10 6 -10 13 0 8 -11 12 -28
11 -20 -1 -28 3 -29 16 -2 23 53 33 72 13 17 -16 29 -17 19 0 -5 8 -2 8 9 -2
13 -10 17 -10 17 -1 0 7 7 10 16 6 8 -3 12 -2 9 4 -4 6 4 14 17 19 13 6 20 10
16 10 -5 1 1 10 12 21 12 12 18 25 15 30 -3 6 1 7 11 3 14 -5 15 -3 4 17 -8
15 -8 20 -1 16 8 -5 9 4 5 31 -3 21 -6 43 -6 50 -1 7 -4 11 -7 9 -3 -2 -12 2
-19 10 -10 11 -10 14 0 14 9 0 9 3 -2 10 -8 5 -11 10 -7 10 4 0 3 9 -3 20 -8
14 -8 20 0 20 6 0 9 4 6 8 -3 5 1 9 9 9 8 0 11 -5 8 -10 -4 -6 1 -8 11 -4 10
4 15 3 11 -3 -3 -6 -2 -10 4 -10 5 0 12 -9 16 -19 4 -13 12 -18 21 -14 8 3 14
2 13 -3 -4 -21 2 -25 18 -13 11 10 14 10 9 2 -4 -7 -3 -13 3 -13 5 0 13 5 16
10 4 6 9 9 13 7 4 -2 17 7 29 20 12 13 19 23 16 23 -4 0 4 10 16 21 18 17 20
23 9 30 -11 7 -11 9 1 9 8 0 11 7 8 20 -3 11 -1 20 4 20 6 0 5 8 -1 20 -7 14
-7 20 0 20 5 0 1 10 -10 23 -48 53 -49 56 -37 61 7 2 4 5 -6 5 -16 1 -16 2 0
19 14 14 20 15 26 5 4 -7 17 -13 29 -13 18 0 19 -2 7 -16 -12 -15 -11 -16 10
-9 13 4 21 3 18 -2 -3 -4 11 -8 31 -8 19 0 37 6 40 13 2 6 8 10 13 6 5 -3 9 2
9 10 0 9 4 16 10 16 5 0 9 6 7 13 -1 6 4 11 12 9 9 -2 12 4 8 18 -3 11 -2 18
3 15 13 -8 19 22 7 34 -8 8 -8 11 1 11 9 0 10 5 3 18 -7 13 -6 23 2 32 9 10 9
11 -1 6 -8 -5 -16 3 -23 23 -7 19 -16 28 -24 25 -10 -4 -12 0 -8 15 3 12 1 21
-5 21 -5 0 -13 7 -16 16 -3 8 -2 13 3 10 5 -3 12 2 15 11 6 13 12 10 32 -20
13 -20 27 -37 30 -37 3 0 2 5 -1 10 -3 6 1 10 10 10 9 0 14 -4 11 -8 -2 -4 6
-9 20 -10 13 -1 24 3 24 8 0 5 6 7 13 4 7 -2 22 6 33 18 19 23 19 23 -1 8 -20
-14 -20 -14 -1 7 10 13 22 20 26 18 4 -3 10 2 14 10 3 8 0 15 -7 15 -9 0 -9 2
-1 8 6 4 10 19 8 35 -1 15 2 25 7 22 5 -4 5 5 -1 20 -6 15 -8 30 -5 35 3 5 -5
16 -17 24 -12 9 -17 16 -10 16 7 0 2 11 -12 24 -27 24 -35 43 -13 30 9 -6 9
-4 -1 8 -9 11 -10 18 -2 23 5 3 13 -1 16 -9 3 -9 17 -16 29 -16 13 0 27 -5 31
-11 3 -6 15 -8 26 -6 16 5 17 3 6 -10 -12 -14 -11 -15 9 -5 12 7 24 17 26 24
4 9 6 9 6 -2 1 -8 12 2 26 23 14 20 23 42 19 49 -4 6 -3 8 3 5 6 -4 13 0 17 8
3 8 1 15 -5 15 -6 0 -7 6 -2 13 11 18 12 37 2 37 -5 0 -9 5 -9 11 0 5 5 7 12
3 7 -4 8 -3 4 4 -4 7 -9 22 -11 34 -3 12 -12 29 -22 37 -16 15 -16 15 -3 -4
14 -20 14 -20 -7 -1 -12 10 -21 23 -20 30 1 6 -3 10 -10 9 -19 -4 -11 34 10
47 17 10 19 10 13 -6 -4 -10 -4 -15 0 -11 4 4 13 2 20 -4 8 -6 20 -9 29 -5 8
3 14 0 12 -6 -1 -6 10 -12 25 -13 15 -1 25 2 22 7 -3 4 1 8 8 8 12 0 55 41 50
48 -6 7 -1 22 7 18 5 -4 7 2 4 13 -3 10 0 22 6 25 6 4 11 14 11 22 0 10 -5 12
-12 8 -10 -6 -9 -3 0 8 10 13 11 22 2 38 -6 11 -8 26 -4 33 5 6 -1 5 -11 -3
-15 -12 -17 -12 -10 -1 5 9 3 18 -7 25 -8 6 -17 19 -21 30 -5 12 -13 16 -24
12 -10 -4 -14 -4 -10 0 4 4 1 14 -5 23 -7 9 -8 13 -3 8 4 -4 18 2 30 13 l21
20 22 -21 c15 -14 29 -18 43 -14 15 5 19 3 15 -4 -5 -8 0 -8 19 -1 33 13 55
34 55 54 0 9 5 16 12 16 6 0 8 3 5 7 -4 3 -2 12 4 20 9 10 8 13 -2 13 -11 0
-11 2 1 10 12 8 13 11 1 19 -11 7 -11 9 0 14 9 4 10 6 2 6 -7 1 -10 7 -7 14 2
7 -4 22 -15 34 -11 11 -17 24 -14 27 4 3 1 6 -6 6 -7 0 -9 5 -6 10 3 6 1 10
-5 10 -6 0 -8 5 -5 10 4 6 3 9 -2 8 -4 -2 -8 1 -8 5 0 5 -11 15 -25 22 -16 9
-20 15 -10 16 45 4 57 3 73 -4 10 -4 17 -4 17 2 0 5 10 13 23 17 24 7 67 49
67 65 0 6 5 7 11 3 8 -4 8 0 0 15 -10 17 -9 22 4 27 14 6 14 9 -2 27 -10 11
-12 17 -5 13 9 -6 12 -2 10 10 -4 24 -20 43 -31 37 -4 -2 -6 0 -5 5 2 5 -17
29 -42 53 -25 24 -38 35 -30 24 11 -16 11 -17 0 -8 -16 15 -23 46 -8 37 6 -4
15 0 20 7 7 11 11 11 15 2 2 -7 9 -13 14 -13 6 0 8 4 5 8 -2 4 4 8 14 8 10 0
17 -3 14 -7 -5 -8 10 -6 44 5 12 4 20 11 17 16 -3 5 4 12 16 15 17 6 19 9 8
16 -11 7 -11 11 -2 17 7 5 14 28 14 53 2 67 0 81 -11 74 -6 -4 -7 1 -3 11 4
10 0 20 -10 26 -10 5 -17 16 -17 23 0 8 -7 15 -15 15 -8 0 -15 5 -15 11 0 6
-7 9 -15 5 -14 -5 -20 5 -16 27 1 5 -3 6 -8 3 -5 -3 -11 2 -13 12 -4 12 1 18
13 18 10 0 15 -5 11 -11 -3 -5 1 -4 10 3 13 10 17 10 21 0 4 -8 6 -7 6 5 1 9
7 17 14 17 9 0 8 3 -2 9 -9 6 -10 10 -2 16 9 5 9 10 1 20 -8 9 -8 15 0 20 6 4
7 12 1 23 -6 12 -5 24 5 36 7 10 11 23 7 29 -3 6 -1 7 6 3 6 -4 8 -12 5 -18
-4 -7 -2 -8 4 -4 7 4 12 16 12 27 0 11 4 18 9 15 10 -7 25 39 23 72 -1 15 3
20 11 15 8 -4 7 -1 -1 10 -8 9 -11 20 -8 26 4 5 -1 17 -10 25 -9 9 -13 23 -10
31 3 9 0 15 -9 15 -8 0 -15 5 -15 11 0 5 -4 7 -10 4 -6 -4 -7 1 -3 11 4 12 2
15 -8 12 -8 -3 -24 -1 -37 3 -16 6 -21 6 -16 -2 4 -8 1 -8 -12 -1 -11 5 -24 7
-31 5 -16 -6 -26 14 -12 23 8 5 9 3 4 -6 -5 -9 -4 -11 4 -6 9 6 9 11 0 22 -10
12 -10 15 2 12 8 -2 13 2 12 8 -1 7 5 11 15 10 9 0 17 6 17 14 1 8 6 14 12 13
7 -2 12 5 12 15 0 32 6 57 16 64 6 5 5 8 -2 8 -7 0 -13 5 -13 11 0 6 6 7 13 2
6 -4 4 5 -5 19 -13 20 -14 28 -5 31 7 3 1 9 -13 15 -14 6 -21 11 -17 11 4 1 3
10 -3 21 -6 11 -16 19 -23 17 -7 -1 -11 3 -10 10 2 7 -4 10 -12 7 -9 -4 -15 0
-15 7 0 11 -3 11 -10 -1 -9 -13 -10 -13 -10 0 0 10 -3 11 -8 4 -4 -6 -19 -14
-34 -18 -26 -6 -28 -4 -28 23 0 16 -7 44 -15 64 -8 19 -12 37 -8 40 3 4 -2 18
-12 33 -11 17 -12 24 -4 19 8 -5 6 1 -4 12 -9 11 -14 23 -10 26 3 4 1 7 -6 7
-7 0 -10 4 -7 9 9 14 -5 42 -17 34 -6 -4 -8 0 -4 10 3 10 2 17 -4 17 -6 0 -7
5 -4 10 3 6 -1 10 -9 10 -8 0 -20 8 -25 18 -6 9 -11 12 -11 5 0 -7 -7 -10 -17
-6 -10 4 -14 2 -10 -4 5 -7 0 -9 -12 -6 -11 3 -28 -4 -40 -16 -29 -29 -65 -32
-75 -5 -3 8 -2 12 3 9 5 -3 12 -1 16 5 3 5 1 10 -6 10 -8 0 -8 4 1 15 10 12
10 18 -1 32 -10 11 -10 14 -1 9 8 -5 12 2 13 23 1 17 2 37 3 44 1 6 -5 21 -13
31 -14 17 -14 18 -1 12 12 -6 12 -5 -1 6 -8 7 -21 22 -28 33 -11 18 -12 18 -7
1 6 -16 4 -17 -9 -6 -8 7 -12 17 -8 23 3 5 1 7 -5 3 -6 -3 -14 -2 -17 4 -5 8
-12 7 -23 -2 -12 -10 -14 -10 -8 0 10 17 -1 15 -23 -5 -41 -38 -51 -43 -77
-43 -15 0 -25 3 -22 6 11 10 -40 56 -53 48 -9 -5 -10 -2 -5 11 5 15 4 16 -8 6
-11 -9 -15 -9 -19 1 -3 7 -6 9 -7 3z m9 -94 c-15 -5 -22 6 -14 19 6 9 10 9 16
-1 5 -8 4 -15 -2 -18z m265 -32 c-2 -4 3 -10 12 -13 11 -4 12 -10 6 -22 -5 -9
-7 -25 -5 -35 3 -12 0 -19 -8 -19 -11 0 -11 -2 1 -10 13 -8 13 -10 -2 -10 -26
0 -35 22 -45 109 l-5 43 25 -18 c14 -11 23 -22 21 -25z m-2146 -61 c-2 -7 3
-12 11 -10 17 3 43 -17 35 -29 -3 -5 1 -9 8 -9 9 0 9 -3 -2 -10 -13 -8 -13
-10 0 -10 11 0 11 -3 2 -12 -19 -19 -112 37 -112 67 0 6 5 3 10 -5 7 -11 10
-11 10 -2 0 7 4 11 9 8 5 -3 11 1 15 9 7 18 17 20 14 3z m-867 -18 c6 0 8 4 5
9 -4 5 2 8 11 6 10 -2 21 -4 26 -4 4 -1 7 -7 7 -14 0 -9 -13 -13 -40 -13 -23
0 -40 5 -40 11 0 17 14 28 18 16 2 -6 8 -11 13 -11z m2493 -118 c-33 -58 -39
-64 -29 -33 5 18 4 22 -6 15 -7 -4 -3 6 9 23 12 17 19 32 17 35 -2 2 5 4 16 5
19 2 19 -1 -7 -45z m679 4 c-3 -6 -1 -6 8 2 17 16 26 15 33 -4 3 -8 2 -12 -4
-9 -6 3 -10 2 -10 -2 0 -5 -15 -7 -33 -5 -19 2 -34 9 -34 17 0 8 7 11 15 7 10
-3 13 -1 8 6 -5 8 -2 10 8 6 9 -3 13 -11 9 -18z m-2070 -9 c-4 -7 0 -6 10 2
14 11 17 11 17 0 0 -8 12 -25 26 -39 16 -14 21 -26 15 -28 -9 -3 -8 -8 1 -20
12 -14 10 -14 -12 -2 -41 22 -104 70 -91 70 7 0 9 5 6 10 -4 6 -1 9 7 8 7 -2
12 3 10 10 -1 8 2 11 8 7 6 -3 7 -12 3 -18z m-1518 -247 c-3 -6 -12 -41 -20
-78 -12 -62 -13 -64 -20 -35 -5 23 -12 30 -24 26 -11 -3 -12 -2 -4 4 7 5 14
21 15 36 1 15 8 27 15 27 8 0 16 7 19 15 4 8 10 15 16 15 5 0 6 -5 3 -10z
m1701 -128 c-3 -2 -1 -13 5 -23 7 -14 7 -19 -3 -17 -6 2 -12 -2 -13 -9 0 -6
-3 -15 -7 -19 -5 -4 -8 24 -8 62 0 68 0 68 15 40 9 -16 13 -31 11 -34z m1094
37 c0 8 2 12 5 9 3 -3 -4 -31 -16 -62 -11 -32 -24 -55 -27 -51 -10 10 -9 64 2
58 5 -4 7 1 3 10 -4 10 -2 16 6 14 7 -1 11 7 9 18 -2 16 -1 17 7 5 9 -12 11
-13 11 -1z m-82 -321 c-6 -18 -16 -52 -22 -75 -13 -46 -26 -66 -26 -40 0 10
-5 17 -10 17 -7 0 -7 6 0 19 6 12 6 22 1 25 -5 4 -5 18 2 35 6 17 15 28 19 25
4 -3 8 0 8 6 0 6 4 9 9 5 5 -3 12 -1 16 5 12 19 13 10 3 -22z m-2621 -84 l19
-39 -23 -23 c-13 -13 -23 -17 -23 -11 0 8 -4 8 -12 1 -9 -7 -17 -6 -26 4 -7 8
-10 14 -6 14 4 0 -3 9 -16 20 -15 13 -18 20 -9 21 11 0 11 2 1 6 -10 4 -10 8
0 21 10 12 10 14 1 8 -21 -12 -15 10 10 38 l22 25 22 -23 c11 -13 30 -41 40
-62z m1120 -6 c-3 -8 -6 -5 -6 6 -1 11 2 17 5 13 3 -3 4 -12 1 -19z m1369
-190 c-6 -33 -36 -88 -48 -88 -9 0 -9 3 2 10 12 8 12 10 1 10 -11 0 -11 3 -1
15 6 8 8 20 4 26 -4 7 -3 9 4 5 6 -3 16 3 22 14 12 23 19 26 16 8z m-2380
-105 c-11 -11 -34 29 -28 49 4 17 7 15 20 -12 8 -17 12 -33 8 -37z m2244 -193
c0 -4 -8 -18 -19 -31 -10 -13 -21 -33 -25 -45 -3 -11 -13 -21 -21 -21 -10 0
-12 4 -6 10 5 5 7 16 4 23 -3 8 0 14 5 14 6 0 9 9 7 20 -2 13 2 20 11 20 8 0
14 7 14 15 0 9 6 12 15 9 8 -4 15 -10 15 -14z m-135 -270 c-2 -8 -4 -18 -4
-21 -1 -4 -19 -26 -41 -50 -28 -31 -40 -39 -40 -26 0 9 -4 17 -8 17 -5 0 -9 7
-9 15 0 8 4 15 9 15 5 0 7 4 4 8 -3 5 4 20 16 35 23 29 78 35 73 7z m-534 -85
c5 4 10 -5 10 -19 1 -14 2 -34 2 -43 1 -10 6 -21 12 -25 6 -5 3 -8 -6 -8 -18
0 -29 29 -34 90 -2 19 -1 27 2 17 2 -9 9 -15 14 -12z m-1303 -52 c16 -25 20
-39 13 -46 -13 -13 -22 -5 -24 22 -1 11 -7 21 -15 21 -7 0 -10 5 -6 11 3 6 0
15 -7 20 -12 7 -11 9 1 8 8 0 25 -16 38 -36z m1656 -95 c-3 -4 0 -8 5 -8 6 0
11 -8 11 -18 0 -20 -25 -38 -80 -57 -37 -13 -38 -13 -35 8 5 46 26 75 51 72
13 -1 24 1 24 5 0 4 7 7 15 7 8 0 12 -4 9 -9z m1516 -218 c0 -5 -5 -10 -11
-10 -5 0 -7 5 -4 10 3 6 8 10 11 10 2 0 4 -4 4 -10z m-2722 -552 c12 -27 16
-48 11 -48 -6 0 -7 -6 -3 -12 6 -10 5 -10 -8 -1 -8 7 -17 10 -21 7 -3 -3 -8 4
-12 15 -3 12 -10 21 -14 21 -4 0 -8 6 -9 13 -1 6 -3 23 -5 37 -3 29 13 45 29
27 7 -7 21 -33 32 -59z m138 -278 c12 -56 10 -75 -7 -64 -5 3 -7 9 -4 14 3 5
-4 15 -15 23 -13 9 -18 20 -14 31 4 9 1 16 -6 16 -10 0 -10 3 -1 14 9 11 9 15
-1 20 -7 3 -2 4 11 3 21 -2 26 -10 37 -57z m280 -703 c5 -32 3 -47 -5 -47 -6
0 -11 7 -11 15 0 8 -8 15 -17 16 -11 0 -13 3 -5 6 6 2 12 9 12 14 0 6 -4 8 -9
5 -12 -8 -9 26 4 41 15 17 24 3 31 -50z m1167 -77 c-3 -12 -8 -19 -11 -16 -5
6 5 36 12 36 2 0 2 -9 -1 -20z m-1137 -187 c-5 -39 -38 -104 -50 -100 -5 2
-13 15 -17 30 -4 16 -3 25 2 21 5 -3 9 3 9 13 0 14 44 63 56 63 2 0 1 -12 0
-27z m-56 -458 c0 -14 -2 -25 -4 -25 -2 0 -6 11 -8 25 -3 14 -1 25 3 25 5 0 9
-11 9 -25z m410 -432 c0 -10 -4 -24 -9 -32 -7 -11 -10 -9 -16 8 -7 22 0 41 16
41 5 0 9 -8 9 -17z m1075 -83 c3 -5 1 -10 -4 -10 -6 0 -11 5 -11 10 0 6 2 10
4 10 3 0 8 -4 11 -10z m-1713 -20 c11 -25 9 -200 -3 -200 -5 0 -7 5 -4 11 9
13 -32 52 -45 44 -6 -3 -7 1 -4 9 3 9 2 16 -4 16 -6 0 -8 9 -5 20 3 13 0 20
-8 20 -10 0 -10 3 -2 11 6 6 9 18 6 25 -3 8 1 14 8 14 7 0 10 3 6 6 -8 8 24
43 37 41 6 -1 14 -9 18 -17z m8 -235 c0 -14 -3 -25 -7 -25 -5 0 -8 11 -8 25 0
14 3 25 8 25 4 0 7 -11 7 -25z m82 -266 c28 -26 38 -59 17 -59 -5 0 -7 -4 -4
-10 3 -5 -1 -10 -10 -10 -9 0 -14 -4 -10 -9 3 -6 -4 -8 -16 -6 -16 3 -18 1
-10 -8 7 -9 5 -13 -8 -13 -13 0 -17 5 -13 16 5 13 4 13 -14 0 -10 -8 -16 -10
-12 -6 4 5 3 15 -3 23 -6 7 -8 13 -4 13 4 0 2 7 -5 15 -9 11 -9 15 -1 15 9 0
9 5 1 20 -6 12 -7 20 -1 20 5 0 7 10 3 22 -3 14 -2 19 6 14 7 -4 12 -1 12 8 0
17 12 10 72 -45z m848 -89 c0 -5 -5 -10 -11 -10 -5 0 -7 5 -4 10 3 6 8 10 11
10 2 0 4 -4 4 -10z m-690 -152 c28 -46 26 -67 -4 -35 -13 14 -25 24 -27 22 -2
-2 -4 8 -4 21 0 33 12 30 35 -8z"/>
<path d="M3605 7290 c-3 -6 1 -7 9 -4 18 7 21 14 7 14 -6 0 -13 -4 -16 -10z"/>
<path d="M6040 7183 c-15 -11 -20 -12 -15 -3 5 9 4 11 -3 6 -7 -4 -12 -14 -12
-22 0 -8 -7 -17 -15 -20 -8 -4 -12 -10 -9 -15 3 -5 -17 -9 -45 -9 -27 0 -53 5
-56 11 -4 6 -14 8 -22 5 -8 -4 -11 -1 -7 5 4 7 -3 10 -17 8 -13 -2 -30 0 -36
4 -8 5 -13 3 -13 -3 0 -7 -7 -10 -15 -6 -9 3 -20 -3 -27 -14 -7 -11 -20 -20
-28 -20 -8 -1 -33 -8 -55 -16 -75 -28 -95 -33 -92 -22 1 6 -6 12 -16 13 -15 3
-16 1 -5 -12 11 -14 11 -15 -7 -5 -24 12 -55 -1 -55 -23 0 -8 -5 -17 -12 -21
-7 -5 -8 -2 -3 7 5 8 4 11 -1 6 -5 -5 -9 -12 -10 -15 -3 -28 -28 -64 -48 -72
-13 -5 -29 -17 -35 -27 -6 -10 -11 -12 -11 -5 0 6 -9 12 -20 12 -11 0 -20 5
-20 10 0 7 -7 7 -21 -1 -16 -8 -20 -8 -14 1 6 9 3 9 -12 1 -11 -6 -23 -7 -27
-4 -3 3 -6 -1 -6 -10 0 -8 -5 -17 -11 -19 -7 -2 -13 -20 -14 -40 -1 -19 -4
-39 -7 -44 -3 -5 -5 -23 -3 -40 1 -25 -4 -35 -27 -48 -25 -16 -29 -16 -34 -2
-3 9 -12 16 -20 16 -8 0 -14 5 -14 11 0 8 -4 8 -14 0 -11 -9 -15 -9 -20 1 -5
10 -7 10 -12 1 -3 -7 -12 -13 -20 -13 -17 0 -63 -49 -64 -67 0 -7 -4 -13 -10
-13 -12 0 -9 -22 5 -32 6 -5 5 -8 -2 -8 -7 0 -13 -9 -13 -20 0 -11 5 -20 10
-20 22 0 8 -30 -20 -45 -16 -9 -30 -12 -30 -7 0 11 -48 13 -55 2 -3 -6 -11
-10 -17 -10 -6 0 -7 5 -2 13 5 7 2 5 -7 -5 -9 -9 -18 -16 -20 -14 -2 2 -13 -8
-24 -22 -12 -17 -14 -23 -4 -17 8 6 3 0 -11 -12 -17 -16 -20 -23 -10 -23 12 0
12 -2 2 -9 -16 -10 -12 -85 6 -118 10 -19 10 -27 -5 -49 -16 -25 -17 -25 -30
-8 -7 10 -13 15 -13 11 0 -4 -10 -2 -22 4 -22 12 -22 11 -8 -6 14 -17 14 -18
-7 -6 -18 9 -23 9 -23 0 0 -7 -3 -9 -7 -6 -3 4 -12 -1 -20 -11 -12 -16 -13
-16 -7 3 l6 20 -13 -20 c-7 -11 -13 -22 -13 -25 0 -3 -9 -13 -20 -22 -12 -10
-16 -17 -8 -18 6 0 12 5 12 10 0 6 5 10 12 10 7 0 6 -6 -4 -17 -25 -30 -33
-47 -17 -38 11 7 12 6 3 -6 -12 -16 -12 -29 0 -48 6 -10 5 -12 -3 -7 -7 5 -10
2 -9 -6 2 -7 12 -18 23 -25 11 -7 16 -13 10 -13 -5 0 -4 -4 2 -8 18 -12 -14
-55 -34 -47 -14 5 -14 3 -2 -11 13 -16 12 -16 -11 -4 -14 8 -34 13 -44 11 -28
-4 -67 -32 -60 -42 3 -5 0 -9 -6 -9 -7 0 -10 -7 -6 -15 3 -8 1 -15 -4 -15 -6
0 -10 -27 -10 -60 0 -33 4 -60 10 -60 18 0 11 -26 -15 -54 -13 -14 -25 -29
-25 -31 0 -3 0 -11 0 -17 0 -9 -3 -9 -9 1 -8 12 -12 12 -25 2 -9 -8 -16 -20
-16 -28 0 -8 -4 -11 -10 -8 -5 3 -11 1 -11 -4 -3 -21 -4 -26 -13 -40 -6 -10
-5 -12 2 -7 19 12 14 -2 -10 -25 -13 -12 -17 -18 -9 -14 11 6 13 4 8 -8 -3 -9
-2 -19 2 -22 5 -3 7 -14 4 -24 -3 -12 3 -26 16 -37 12 -10 21 -24 21 -30 0 -7
6 -14 14 -17 17 -7 27 -67 11 -67 -6 0 -15 3 -19 7 -10 10 -46 11 -46 1 0 -5
-4 -6 -10 -3 -5 3 -10 2 -10 -4 0 -6 -7 -8 -15 -5 -11 5 -13 2 -8 -12 5 -13 3
-16 -10 -11 -11 4 -14 2 -11 -7 3 -8 1 -17 -5 -21 -6 -3 -11 -15 -11 -26 0
-10 -6 -19 -12 -19 -9 0 -8 -4 2 -10 12 -8 12 -10 1 -10 -9 0 -12 -8 -9 -25 3
-14 1 -25 -5 -25 -6 0 -2 -9 8 -20 10 -11 16 -23 12 -26 -9 -9 25 -44 36 -37
17 10 38 -27 27 -48 -11 -20 -74 -55 -65 -36 3 7 -2 1 -12 -13 -10 -13 -26
-33 -35 -42 -10 -10 -15 -18 -12 -18 4 0 1 -6 -5 -14 -6 -7 -8 -22 -4 -31 4
-13 3 -16 -5 -11 -8 5 -10 2 -6 -8 3 -9 11 -13 16 -10 6 4 5 -3 -1 -15 -10
-17 -9 -22 4 -27 8 -3 15 -10 15 -16 0 -5 -5 -6 -12 -2 -7 4 -8 3 -4 -5 4 -6
11 -9 15 -7 4 3 13 -9 20 -25 7 -16 16 -27 20 -24 4 2 7 -8 5 -23 -1 -15 -2
-33 -3 -41 -1 -8 -4 -12 -7 -8 -4 3 -13 -1 -21 -9 -8 -8 -19 -11 -25 -8 -7 4
-8 2 -4 -4 4 -7 2 -12 -3 -12 -6 0 -11 -7 -11 -15 0 -8 -7 -15 -16 -15 -11 0
-14 -7 -10 -30 2 -19 0 -30 -7 -30 -8 0 -7 -3 1 -9 17 -11 17 -21 0 -32 -11
-7 -11 -9 1 -9 7 0 11 -6 7 -15 -3 -8 3 -23 13 -32 10 -10 21 -26 24 -37 4
-11 13 -16 22 -12 8 3 14 2 12 -2 -1 -4 3 -7 8 -7 6 0 9 5 7 10 -2 6 1 5 8 -1
17 -17 23 -65 7 -58 -19 7 -40 -22 -34 -46 3 -11 1 -18 -4 -14 -5 3 -9 0 -9
-5 0 -6 -3 -10 -7 -10 -20 3 -26 -2 -13 -11 11 -7 11 -10 2 -10 -7 0 -10 -5
-7 -10 4 -6 3 -10 -2 -9 -19 3 -33 -2 -33 -12 0 -5 6 -7 13 -3 6 4 4 -2 -7
-14 -16 -19 -17 -24 -5 -39 9 -11 10 -14 2 -9 -7 4 -13 3 -13 -1 0 -5 6 -15
13 -22 7 -9 8 -11 0 -7 -7 4 -11 -5 -10 -28 0 -19 4 -33 8 -30 4 2 9 -6 12
-17 3 -12 9 -19 14 -16 4 3 6 -32 4 -76 -2 -45 -7 -84 -12 -85 -6 -2 -5 -10 2
-18 9 -11 9 -14 0 -14 -7 0 -9 -4 -6 -10 3 -5 2 -10 -3 -10 -13 0 -8 -36 9
-56 9 -11 9 -15 2 -10 -8 4 -13 1 -13 -8 0 -9 4 -16 10 -16 5 0 9 -6 7 -12 -1
-7 3 -12 10 -11 7 2 10 -4 7 -12 -4 -9 0 -15 9 -15 28 0 41 -29 38 -93 -1 -34
-7 -67 -13 -74 -5 -6 -8 -20 -7 -30 2 -10 -2 -28 -9 -40 -9 -17 -10 -23 -1
-23 6 0 9 -7 5 -15 -3 -8 1 -18 8 -22 7 -5 18 -18 25 -31 7 -12 17 -20 23 -16
6 4 8 3 4 -4 -3 -5 -1 -12 6 -14 17 -6 14 -102 -4 -130 -14 -21 -13 -29 13
-91 15 -37 37 -76 48 -86 12 -10 21 -22 21 -27 0 -5 10 -25 22 -44 27 -43 32
-71 16 -82 -7 -4 -8 -8 -3 -8 6 0 10 -26 9 -60 -1 -33 2 -58 5 -56 9 6 31 -21
24 -28 -4 -3 -1 -6 6 -6 7 0 9 -5 5 -12 -5 -7 0 -9 14 -6 25 7 35 -4 52 -57 7
-22 19 -50 26 -62 9 -14 10 -23 4 -23 -8 0 -7 -6 0 -20 8 -15 8 -20 -2 -20 -9
0 -9 -3 2 -10 9 -6 11 -10 3 -10 -7 0 -10 -7 -7 -15 4 -8 10 -12 16 -9 5 3 9
0 7 -7 -3 -28 1 -39 17 -39 8 0 13 -4 10 -8 -3 -5 11 -15 30 -24 20 -9 37 -12
40 -6 3 5 13 3 22 -4 13 -11 14 -11 7 1 -5 10 -4 12 3 7 7 -4 12 -14 12 -22 0
-8 5 -12 10 -9 6 3 11 -2 11 -12 4 -56 3 -69 -6 -75 -6 -5 -6 -8 1 -8 6 0 9
-13 6 -30 -3 -21 0 -30 9 -30 11 0 11 -2 -1 -10 -11 -7 -11 -10 -2 -10 7 0 10
-5 7 -10 -3 -6 5 -14 19 -19 13 -6 27 -19 31 -30 3 -11 35 -51 71 -88 35 -37
64 -72 64 -78 0 -5 9 -16 21 -23 12 -7 18 -16 15 -19 -3 -4 1 -17 9 -30 9 -13
14 -27 12 -31 -5 -9 30 -42 37 -35 3 4 6 0 6 -7 0 -9 5 -7 16 6 8 10 13 13 9
7 -3 -7 0 -13 7 -13 7 0 34 -16 59 -34 46 -34 46 -35 45 -91 -1 -35 4 -61 12
-67 6 -6 12 -17 12 -25 0 -13 3 -13 15 -3 13 11 14 10 10 -2 -4 -11 2 -17 20
-20 21 -4 23 -3 13 9 -10 12 -7 12 16 2 23 -11 29 -10 37 2 7 12 9 12 9 -1 1
-13 3 -12 13 1 11 15 15 15 40 -7 16 -13 25 -29 22 -34 -3 -6 0 -10 7 -10 10
0 10 -2 -1 -9 -11 -7 -11 -9 0 -14 12 -5 12 -6 0 -6 -11 -1 -11 -4 -1 -16 10
-12 10 -15 -1 -15 -10 -1 -9 -5 4 -14 10 -8 18 -17 18 -20 -3 -20 1 -26 15
-26 10 0 14 -5 10 -16 -3 -8 -2 -12 4 -9 6 3 10 2 10 -3 0 -5 14 -12 30 -14
17 -3 30 -1 30 4 0 4 -5 8 -12 8 -6 0 -8 3 -5 6 4 4 13 1 21 -5 11 -10 17 -8
28 8 8 12 18 18 22 13 4 -4 7 -2 6 3 -5 23 1 46 10 40 6 -3 10 1 10 9 0 9 6
16 13 16 15 0 46 -20 31 -20 -6 0 -10 -11 -9 -25 2 -14 -1 -25 -7 -25 -6 0 -5
-6 2 -15 7 -8 8 -15 2 -15 -5 0 -9 -11 -9 -25 0 -14 5 -25 11 -25 6 0 4 -5 -4
-10 -10 -7 -11 -10 -2 -10 7 0 18 -11 24 -25 6 -14 18 -24 26 -23 8 2 16 -5
18 -15 4 -27 11 -32 28 -18 11 10 15 8 19 -6 4 -16 5 -16 6 2 1 17 3 18 11 5
8 -13 10 -12 10 3 0 10 5 15 10 12 6 -3 15 6 20 20 6 16 14 23 22 19 8 -5 9
-2 5 10 -4 10 -1 19 8 23 9 3 15 10 14 17 -3 23 3 51 8 39 2 -7 9 -13 14 -13
6 0 7 5 3 12 -4 6 -3 8 3 5 11 -7 9 -48 -3 -68 -5 -8 -3 -9 6 -4 10 6 12 4 7
-10 -4 -9 -2 -24 4 -31 10 -12 8 -13 -7 -8 -15 6 -17 4 -7 -6 6 -7 9 -19 6
-26 -3 -8 0 -14 6 -14 6 0 8 -7 5 -15 -4 -8 -1 -15 7 -15 7 0 9 -3 6 -7 -11
-10 13 -33 35 -33 13 0 17 -4 12 -12 -5 -9 -2 -9 9 1 9 7 17 9 17 3 0 -5 7
-12 14 -15 11 -4 13 -1 9 11 -6 15 -5 15 10 3 16 -12 22 -8 18 12 -1 5 3 5 9
2 19 -12 48 24 46 55 -1 16 2 27 6 24 4 -3 8 4 8 15 0 35 10 49 31 44 16 -5
18 -8 7 -14 -9 -6 -10 -9 -1 -9 9 0 10 -7 2 -26 -9 -25 -8 -26 8 -13 14 12 16
12 8 0 -13 -22 -16 -73 -4 -65 8 5 8 1 0 -14 -8 -15 -7 -23 3 -31 7 -6 17 -7
21 -3 5 4 5 -1 2 -10 -4 -13 -2 -15 10 -11 11 4 14 2 9 -5 -4 -7 -4 -13 1 -13
56 -8 73 -7 73 2 0 7 6 7 17 -2 11 -10 14 -10 9 -1 -4 7 -2 12 4 12 6 0 9 4 6
9 -3 5 3 11 14 14 11 3 20 9 19 14 -3 19 2 34 10 29 4 -3 7 6 5 19 -1 14 2 27
7 31 5 3 9 10 9 15 0 6 -6 7 -12 3 -10 -6 -10 -5 -1 8 7 8 9 19 5 24 -4 4 0 3
10 -4 13 -10 17 -10 21 0 3 7 6 4 6 -7 1 -12 7 -27 14 -34 9 -11 9 -12 0 -7
-9 5 -12 -1 -11 -18 2 -20 7 -25 20 -20 10 3 18 0 18 -6 0 -6 5 -8 12 -4 7 4
8 3 4 -5 -4 -6 0 -18 8 -27 9 -9 14 -20 11 -25 -4 -5 1 -9 10 -9 9 0 13 -4 10
-10 -4 -6 5 -10 19 -10 14 0 26 -5 26 -11 0 -5 -5 -7 -12 -3 -6 4 -8 3 -5 -3
8 -12 65 -7 82 7 6 5 16 6 21 2 4 -4 2 1 -6 11 -11 15 -11 18 0 15 7 -2 19 8
27 22 7 14 13 21 13 15 0 -5 4 -3 10 5 6 9 5 17 -3 22 -9 6 -8 8 2 8 10 0 11
3 2 14 -8 10 -9 16 -1 21 15 9 13 58 -2 49 -10 -5 -10 -4 -1 6 17 18 43 22 37
5 -3 -7 0 -16 5 -20 6 -3 9 -11 6 -16 -4 -5 -2 -9 4 -9 6 0 8 -6 5 -14 -3 -8
0 -17 5 -21 6 -3 9 -11 6 -16 -4 -5 -1 -9 5 -9 6 0 8 -4 5 -10 -3 -5 -2 -10 4
-10 5 0 13 -10 16 -21 6 -17 9 -19 16 -8 7 12 9 11 9 -1 0 -9 9 -16 20 -17 13
-1 18 2 14 10 -5 9 -3 9 6 0 11 -10 16 -9 27 5 8 9 12 11 8 5 -4 -9 -1 -11 9
-7 9 3 13 10 10 15 -3 5 0 9 7 9 7 0 9 3 6 7 -4 3 5 17 19 30 14 12 20 23 13
23 -7 0 -8 4 -2 12 5 7 9 36 9 64 -1 40 2 50 13 46 10 -4 12 -1 6 9 -6 11 -5
12 5 2 7 -7 15 -25 16 -41 3 -28 34 -97 34 -77 0 7 3 7 8 0 12 -17 56 -51 48
-37 -4 6 -2 12 3 12 6 0 11 -5 11 -11 0 -8 4 -9 13 0 8 6 17 8 20 4 4 -3 7 2
7 13 0 14 2 16 9 5 6 -10 12 -5 22 17 9 21 16 27 21 19 8 -12 10 1 12 70 0 18
5 33 11 33 5 0 2 5 -8 11 -14 8 -16 14 -6 25 6 8 8 14 4 14 -4 0 -1 8 6 17 12
15 12 16 -1 8 -12 -6 -12 -5 -3 5 14 16 34 4 31 -18 -2 -10 7 -21 20 -27 12
-5 22 -13 22 -18 0 -4 -6 -5 -12 -2 -7 4 -2 -3 12 -15 14 -12 18 -19 10 -15
-8 4 -4 -3 10 -14 29 -24 41 -26 59 -8 11 9 13 9 7 0 -9 -16 -2 -16 26 0 32
18 48 34 41 41 -4 3 -1 6 6 6 8 0 11 7 7 15 -3 9 0 18 8 21 16 6 13 98 -4 118
-14 18 -10 75 6 69 7 -3 10 -11 7 -19 -3 -8 -2 -14 3 -13 5 1 16 1 24 0 13 -1
13 -2 0 -11 -9 -6 -11 -10 -3 -10 7 0 19 -12 27 -27 9 -16 16 -22 16 -13 1 9
5 5 11 -9 6 -15 15 -21 24 -17 10 3 15 -1 16 -12 0 -10 3 -12 6 -4 2 6 9 12
13 12 16 0 72 58 66 68 -3 5 1 13 9 16 8 3 15 9 14 13 -1 4 0 10 1 13 7 19 5
50 -4 50 -6 0 -4 5 4 10 13 9 13 10 0 10 -13 0 -13 1 0 10 12 7 12 10 1 10 -8
0 -11 6 -7 16 4 10 2 13 -6 8 -7 -5 -9 0 -6 14 4 12 2 22 -3 22 -13 0 -11 38
3 46 7 5 8 3 3 -6 -6 -10 -4 -12 8 -7 10 3 17 2 17 -3 0 -6 6 -10 14 -10 7 0
20 -8 27 -17 12 -14 12 -16 0 -8 -9 5 -12 4 -7 -3 3 -6 19 -10 35 -10 15 1 33
-2 40 -6 6 -4 11 -3 11 3 0 6 6 8 13 5 8 -3 20 3 28 13 12 16 12 17 -1 8 -9
-5 -4 1 11 15 15 14 26 33 24 43 -2 9 1 17 6 17 5 0 9 5 9 11 0 5 -4 8 -9 4
-5 -3 -13 0 -17 6 -4 7 -3 9 4 5 6 -3 13 -2 17 4 3 5 2 10 -3 10 -5 0 -7 11
-4 25 3 16 -1 27 -11 31 -9 3 -14 14 -12 25 2 12 -2 19 -11 19 -8 0 -12 5 -9
10 3 6 0 10 -7 10 -9 0 -9 3 2 10 12 8 10 10 -9 10 -23 0 -24 1 -6 13 11 9 15
19 10 28 -4 8 2 4 15 -9 12 -13 27 -21 34 -19 14 6 37 -18 28 -29 -4 -5 2 -2
12 6 11 8 17 10 13 4 -4 -7 2 -11 18 -11 15 0 22 4 19 11 -3 6 1 3 9 -7 14
-17 15 -17 21 0 6 15 8 15 16 3 8 -12 10 -11 10 7 0 12 5 25 11 28 6 4 8 13 5
21 -3 8 -2 14 3 14 4 0 7 32 5 71 -1 69 -3 72 -40 107 -22 19 -32 31 -24 27
13 -8 13 -6 1 8 -7 9 -17 14 -22 11 -5 -3 -6 2 -3 10 3 9 10 13 15 10 5 -3 9
1 9 8 0 9 3 9 10 -2 9 -13 10 -13 10 0 1 12 3 11 11 -3 8 -14 14 -15 31 -6 15
8 19 8 14 0 -12 -19 36 -6 50 14 8 10 14 15 14 9 0 -5 5 -2 10 7 5 9 8 26 5
38 -2 12 0 19 4 16 11 -6 24 43 15 57 -4 7 -3 8 4 4 7 -4 12 -2 12 3 0 6 -6
11 -12 11 -10 0 -10 2 0 9 11 7 11 11 -2 24 -12 11 -13 17 -3 20 7 3 5 6 -5 6
-10 1 -20 12 -24 26 -3 14 -10 23 -14 20 -4 -3 -11 3 -14 12 -6 15 -8 15 -16
3 -8 -12 -10 -11 -10 5 0 13 -3 16 -8 8 -6 -9 -11 -7 -20 7 -7 12 -8 20 -2 20
5 0 10 6 10 13 0 9 9 12 29 9 19 -3 30 1 34 12 4 11 1 14 -11 10 -9 -2 -7 1 6
7 12 7 21 19 20 28 -2 9 3 15 11 13 8 -2 11 3 8 10 -5 14 17 40 27 31 3 -3 4
4 1 16 -2 11 0 21 4 21 4 0 7 12 7 28 -1 15 3 33 8 40 5 7 4 12 -3 12 -7 0 -9
5 -6 11 4 5 -1 20 -12 31 -10 12 -12 18 -5 14 11 -7 11 -4 1 12 -7 12 -17 18
-21 16 -4 -3 -8 1 -8 9 0 8 -7 18 -16 21 -10 4 -13 2 -8 -6 5 -8 2 -9 -10 -5
-10 4 -20 7 -22 7 -3 0 -2 6 2 13 5 8 2 7 -9 -2 -10 -8 -20 -11 -24 -7 -3 3
-15 -1 -25 -11 -10 -9 -18 -13 -18 -8 0 4 -8 1 -17 -6 -10 -7 -15 -9 -11 -5 4
5 3 15 -4 23 -9 11 -8 13 2 11 8 -2 14 8 15 25 1 16 8 32 15 37 10 6 9 9 -1
13 -11 4 -11 8 -2 14 6 5 11 29 10 55 0 26 -3 45 -6 43 -2 -3 -9 5 -15 16 -6
12 -15 21 -20 20 -5 -1 -14 8 -20 21 -7 14 -20 23 -33 22 -13 -1 -19 4 -17 11
6 15 -22 39 -35 31 -5 -3 -12 0 -14 6 -4 10 -6 10 -6 1 -1 -7 -6 -13 -12 -13
-5 0 -7 5 -3 11 5 8 1 8 -14 0 -25 -13 -37 0 -47 49 -3 19 -9 43 -12 54 -4 14
-2 16 8 10 11 -6 12 -5 3 7 -5 8 -11 31 -13 52 -3 44 -35 87 -63 87 -13 0 -17
4 -12 13 4 6 -2 4 -13 -6 -16 -14 -23 -15 -29 -6 -5 8 -3 10 6 4 9 -6 11 -4 5
5 -6 10 -11 10 -20 -3 -7 -9 -15 -14 -18 -10 -4 3 -10 -3 -14 -13 -3 -10 -11
-22 -16 -25 -15 -10 -77 13 -77 29 0 12 -2 12 -17 1 -15 -12 -16 -12 -10 5 6
16 5 17 -8 6 -13 -11 -15 -9 -15 14 0 15 -4 25 -8 22 -4 -2 -13 8 -20 24 -10
21 -19 27 -37 25 -14 -1 -25 1 -25 5 0 7 -8 7 -39 1 -2 -1 3 -9 10 -18 10 -12
10 -15 1 -9 -13 8 -42 -15 -42 -34 0 -6 -4 -9 -9 -5 -6 3 -8 -4 -6 -15 2 -11
-3 -24 -12 -28 -10 -6 -12 -12 -5 -16 7 -4 6 -16 -4 -35 -16 -31 -40 -46 -49
-30 -4 5 -11 7 -16 4 -5 -4 -9 -1 -9 5 0 8 -10 10 -27 6 -19 -5 -23 -4 -14 3
11 7 10 10 -5 13 -21 4 -64 -13 -64 -25 0 -5 -4 -6 -9 -3 -5 3 -11 -4 -14 -15
-4 -14 -10 -18 -18 -13 -9 5 -10 2 -6 -9 4 -10 2 -17 -4 -17 -6 0 -9 -7 -5
-15 3 -8 2 -15 -3 -15 -10 0 -6 -68 4 -78 5 -4 5 0 0 8 -5 8 -4 12 0 7 18 -16
13 -38 -12 -54 -23 -16 -26 -16 -35 0 -5 9 -16 17 -23 17 -8 0 -15 6 -15 13 0
9 -3 8 -9 -2 -5 -7 -13 -11 -18 -8 -15 9 -75 -25 -69 -39 3 -8 -1 -14 -10 -14
-8 0 -13 -4 -9 -9 3 -5 0 -13 -6 -16 -5 -4 -8 -13 -5 -21 3 -7 1 -16 -5 -20
-6 -4 -6 -11 2 -20 9 -11 8 -14 -4 -14 -8 0 -17 -5 -19 -10 -4 -14 -68 -22
-65 -8 1 6 -4 13 -12 16 -8 2 -11 0 -7 -6 3 -5 -2 -9 -12 -8 -9 0 -16 -4 -15
-11 2 -7 -3 -10 -10 -7 -13 5 -64 -54 -59 -68 1 -5 -2 -8 -7 -8 -5 0 -7 -9 -4
-19 7 -26 -53 -60 -71 -40 -8 9 -7 10 4 5 8 -4 5 1 -7 10 -13 9 -23 23 -23 32
0 8 -3 12 -7 9 -3 -4 -12 -2 -20 4 -10 9 -13 7 -13 -7 0 -17 -1 -17 -15 2 -11
14 -14 15 -15 4 0 -13 -1 -13 -10 0 -8 12 -10 12 -16 -3 -3 -9 -10 -17 -16
-17 -5 0 -6 5 -3 10 3 6 4 10 1 10 -6 0 -49 -81 -48 -90 0 -3 -4 -4 -9 -3 -5
2 -9 -1 -9 -6 0 -5 -12 -6 -26 -2 -19 5 -32 19 -43 47 -18 45 -57 103 -46 70
5 -16 3 -17 -10 -6 -8 7 -12 17 -8 24 4 8 2 7 -7 -1 -7 -6 -19 -9 -28 -6 -11
5 -13 3 -7 -8 7 -12 6 -12 -7 -1 -14 11 -17 10 -23 -8 -3 -11 -9 -18 -13 -16
-10 6 -32 -21 -24 -29 4 -4 -3 -3 -15 4 -24 12 -56 68 -47 82 3 5 0 9 -6 9 -6
0 -9 4 -5 9 7 12 -24 43 -36 35 -5 -3 -9 -2 -8 3 3 20 -2 34 -11 28 -12 -8
-60 39 -60 58 0 8 -7 17 -15 21 -8 3 -15 12 -15 21 0 16 -45 40 -67 36 -7 -1
-13 5 -13 14 0 8 -5 15 -11 15 -8 0 -8 5 1 15 7 8 9 15 5 15 -5 0 1 8 13 18
17 15 19 21 9 32 -8 8 -8 11 -1 7 7 -4 15 0 18 9 8 21 8 26 -1 21 -5 -3 -7 11
-7 31 1 21 -5 45 -15 56 -9 11 -10 16 -4 12 7 -4 3 8 -10 27 -12 19 -24 33
-26 31 -2 -2 -10 4 -18 14 -8 9 -12 11 -8 5 4 -9 -2 -13 -19 -13 -24 0 -39 13
-42 36 -1 7 5 11 15 9 21 -3 65 41 55 56 -4 7 -3 9 2 6 6 -3 15 3 22 13 10 17
9 18 -6 13 -14 -6 -15 -4 -5 8 10 12 10 18 0 29 -9 10 -9 11 0 6 16 -9 15 42
-1 63 -9 12 -8 13 4 6 12 -6 13 -5 3 6 -7 7 -13 21 -13 32 0 10 -4 16 -9 13
-5 -3 -11 3 -14 14 -3 13 -10 18 -21 14 -10 -4 -16 -1 -16 7 0 11 -3 11 -10
-1 -8 -12 -10 -12 -10 -1 0 11 -3 11 -17 0 -11 -10 -14 -10 -9 -1 4 6 3 12 -3
12 -5 0 -13 -5 -17 -12 -5 -8 -10 -6 -15 8 -13 32 -10 44 8 37 10 -4 14 -2 9
5 -3 6 0 14 7 19 7 4 17 16 20 26 4 10 11 15 17 12 6 -3 7 1 4 10 -8 19 13 45
35 45 9 0 22 9 29 21 11 17 11 20 0 14 -7 -3 -4 1 6 9 11 9 16 16 12 16 -5 0
-2 8 5 17 12 14 12 16 0 8 -9 -5 -12 -4 -7 3 12 20 15 72 4 72 -6 0 -6 6 2 15
9 11 9 15 1 15 -7 0 -9 5 -5 12 4 7 3 8 -5 4 -7 -4 -15 2 -20 16 -6 13 -10 19
-10 13 -1 -5 -8 1 -17 14 -13 18 -18 20 -25 10 -7 -11 -9 -11 -9 -1 0 7 -4 10
-10 7 -5 -3 -10 -2 -10 4 0 6 -6 8 -14 5 -9 -3 -13 3 -12 22 1 15 8 29 16 31
13 4 13 3 0 -6 -8 -6 -10 -11 -5 -11 6 0 16 5 23 12 7 7 12 9 12 5 0 -4 10 -2
23 4 20 11 21 11 8 -4 -8 -10 -9 -17 -3 -17 6 0 13 4 17 10 3 5 12 7 20 4 15
-6 38 29 27 41 -4 5 -1 5 6 1 7 -4 9 -12 6 -18 -4 -7 -2 -8 4 -4 7 4 9 19 5
38 -4 20 -2 29 4 25 6 -4 8 3 5 18 -2 14 -9 22 -14 19 -6 -4 -5 3 1 15 8 15 9
27 1 40 -7 14 -6 21 3 24 9 4 9 6 0 6 -7 1 -13 6 -13 11 0 18 -36 47 -57 45
-17 -1 -20 4 -19 26 2 20 -2 26 -14 22 -8 -2 -6 1 4 8 15 9 21 9 24 1 2 -7 8
-10 13 -6 5 3 9 -1 9 -8 0 -9 3 -9 10 2 5 8 10 10 10 5 0 -14 53 -11 58 3 2 6
10 8 19 5 11 -4 14 -2 9 5 -4 7 -1 12 8 12 9 0 13 7 11 20 -2 11 0 22 6 25 5
4 9 17 9 31 0 13 4 24 9 24 11 0 9 19 -3 39 -7 11 -6 12 5 6 11 -7 12 -6 2 6
-12 15 -13 18 -13 47 0 14 -2 15 -10 2 -8 -12 -10 -10 -10 8 0 15 -4 21 -12
16 -8 -5 -9 -2 -5 10 4 9 3 15 -1 12 -5 -3 -16 4 -25 15 -9 10 -12 19 -6 19 5
0 8 4 4 9 -3 5 0 13 6 17 8 4 9 3 5 -4 -4 -7 -1 -12 8 -12 8 0 18 -9 21 -20 4
-11 10 -18 15 -15 4 3 10 -2 14 -10 3 -8 12 -12 21 -9 8 3 12 11 8 17 -4 6 -1
7 6 2 18 -10 58 13 64 37 3 11 10 17 16 14 12 -8 25 30 15 45 -5 8 -3 9 6 4
10 -6 12 -4 7 8 -4 10 -1 17 6 17 9 0 8 3 -1 9 -8 4 -14 12 -14 16 0 4 6 12
14 16 11 7 11 9 -1 9 -8 0 -11 7 -8 20 3 11 0 18 -6 17 -6 -1 -11 5 -12 13 -1
8 -6 14 -13 13 -7 -2 -10 8 -8 27 2 16 0 27 -5 25 -4 -3 -11 0 -15 6 -4 8 -3
9 4 5 7 -4 12 -2 12 5 0 8 3 9 13 0 8 -6 18 -7 23 -3 4 4 2 -1 -6 -11 -7 -10
-9 -17 -4 -16 19 3 34 -1 34 -12 0 -5 -6 -7 -12 -3 -9 5 -8 2 1 -9 8 -10 16
-15 19 -12 3 3 12 -1 20 -8 13 -9 14 -9 8 0 -5 9 -2 11 8 7 9 -3 13 -11 9 -18
-3 -6 -1 -6 8 2 7 6 21 12 31 12 9 0 22 9 28 20 7 12 16 18 23 13 7 -4 7 0 -2
10 -8 10 -9 17 -3 17 6 0 17 14 26 30 10 21 11 30 3 30 -7 0 -6 4 3 10 12 8
12 10 1 10 -10 0 -11 3 -2 13 6 8 7 17 1 23 -5 5 -5 15 -1 23 7 10 17 5 43
-23 19 -20 45 -39 58 -41 33 -6 70 5 70 21 0 8 6 13 13 12 6 -2 11 3 9 10 -1
6 3 12 9 12 5 0 7 5 4 10 -3 6 -1 10 4 10 6 0 10 3 10 8 -1 4 0 12 1 17 6 25
4 41 -5 47 -6 5 -5 8 3 8 6 0 12 7 12 16 0 9 -5 12 -12 8 -10 -6 -10 -4 -2 7
6 8 10 26 9 40 -2 24 20 38 23 15 3 -28 10 -63 17 -79 6 -15 10 -15 23 -5 13
11 14 11 7 -1 -6 -11 -4 -13 11 -7 27 11 74 14 68 4 -3 -4 -1 -8 3 -8 5 0 14
-9 21 -21 8 -12 9 -18 3 -14 -12 7 -15 -8 -3 -19 4 -4 7 -13 7 -19 0 -7 9 -11
19 -9 11 2 15 -1 11 -7 -6 -10 13 -16 43 -12 6 1 12 -4 12 -11 0 -11 2 -11 9
0 4 7 17 14 29 15 11 0 18 5 16 9 -3 4 0 8 6 8 6 0 8 5 4 12 -5 8 -2 9 9 5 12
-5 17 -1 17 12 0 13 6 18 18 16 9 -2 21 -4 26 -4 5 -1 3 -8 -4 -16 -9 -11 -9
-15 -1 -15 7 0 10 -4 6 -10 -10 -15 6 -61 19 -53 7 5 7 2 -1 -8 -10 -12 -8
-17 8 -27 10 -7 19 -18 19 -26 0 -10 7 -12 22 -8 14 3 19 1 14 -6 -10 -16 26
-20 54 -6 29 14 49 4 70 -36 12 -23 12 -24 -4 -11 -15 13 -16 12 -8 -10 5 -13
7 -30 5 -36 -3 -7 0 -13 6 -13 6 0 8 -6 5 -14 -3 -8 3 -20 13 -27 10 -8 20
-23 21 -34 2 -11 8 -21 13 -23 5 -2 9 -12 9 -23 0 -10 5 -19 11 -19 5 0 7 -5
3 -12 -5 -7 -2 -9 9 -5 9 3 18 0 21 -9 3 -8 16 -14 30 -14 28 0 43 15 24 24
-7 3 4 4 25 2 29 -3 37 0 33 10 -5 14 5 18 34 14 20 -3 31 -22 20 -36 -6 -6
-6 -15 -2 -19 4 -5 2 -5 -5 -1 -17 9 -29 -34 -12 -45 8 -5 9 -9 3 -9 -6 0 -11
-11 -11 -25 0 -13 3 -22 8 -19 5 3 9 0 9 -5 0 -6 -5 -11 -11 -11 -6 0 -7 -5
-2 -12 4 -7 9 -21 10 -31 2 -10 10 -26 19 -35 19 -18 83 -23 103 -8 12 9 13 7
8 -8 -7 -17 -6 -17 10 -5 32 25 43 43 30 51 -8 5 -5 8 7 8 13 0 16 5 12 16 -4
11 -2 15 8 11 10 -4 14 0 11 13 -3 16 -1 18 14 8 17 -10 22 -60 8 -74 -4 -4
-1 -14 6 -22 9 -13 9 -14 0 -8 -9 5 -13 1 -13 -12 0 -11 7 -23 16 -26 8 -3 12
-2 9 4 -4 6 5 5 19 -1 14 -7 24 -15 21 -19 -2 -3 5 -13 16 -20 10 -8 19 -21
19 -28 0 -9 6 -12 15 -8 9 3 18 0 21 -8 3 -7 11 -13 18 -13 9 0 12 7 8 16 -5
14 -3 14 11 2 14 -11 17 -11 17 0 0 11 2 11 10 -1 8 -13 10 -12 10 3 0 9 5 17
11 17 5 0 7 5 3 12 -4 6 -3 8 3 5 15 -9 46 29 39 48 -4 11 -2 14 6 9 7 -5 9 0
6 14 -4 13 0 23 9 26 8 3 11 10 8 16 -4 6 -11 7 -17 4 -7 -5 -8 -2 -2 7 12 19
11 42 -1 51 -6 4 -1 8 9 8 19 0 19 1 2 13 -16 12 -16 14 -2 14 8 0 18 -9 22
-19 3 -10 10 -16 15 -13 5 3 6 -1 3 -9 -7 -18 40 -51 57 -40 7 4 9 3 5 -4 -3
-6 -2 -13 4 -17 5 -3 10 -2 10 3 0 6 7 13 16 16 8 3 12 2 9 -4 -3 -6 -2 -10 4
-10 5 0 13 5 16 10 4 6 11 8 16 5 5 -4 9 0 9 8 0 8 11 23 25 33 17 13 21 20
12 26 -7 5 -8 8 -1 8 6 0 11 23 12 55 0 30 -4 55 -9 55 -6 0 -7 5 -4 10 3 6 2
10 -4 10 -5 0 -8 9 -6 21 4 17 2 19 -11 8 -12 -10 -13 -9 -9 4 4 8 1 18 -4 22
-6 3 -9 11 -6 16 3 5 0 6 -8 3 -9 -3 -16 3 -20 15 -3 12 1 22 9 25 8 3 14 0
15 -7 0 -7 4 -3 9 8 5 11 9 15 9 9 1 -7 8 -15 17 -18 8 -3 12 -2 9 4 -3 6 1
10 10 10 10 0 13 -5 9 -12 -6 -10 -5 -10 8 -1 8 7 19 9 23 5 5 -4 5 1 2 11 -4
11 -3 16 4 12 11 -7 40 25 33 36 -2 4 3 10 12 13 13 5 14 9 4 21 -7 8 -8 15
-4 15 5 0 10 13 10 30 1 17 -2 27 -8 24 -6 -4 -5 3 1 15 8 15 9 21 1 21 -6 0
-8 5 -4 12 5 8 2 9 -10 5 -14 -6 -16 -3 -11 13 5 14 2 20 -10 20 -9 0 -13 5
-10 10 3 6 -1 10 -10 10 -9 0 -13 5 -10 10 3 6 2 10 -4 10 -5 0 -8 9 -6 20 2
11 -1 20 -6 20 -6 0 -7 5 -4 10 3 6 -4 10 -15 10 -16 0 -20 4 -16 16 3 9 6 19
6 23 0 4 10 7 22 8 12 1 28 10 37 19 15 17 15 17 -4 4 -11 -7 -3 3 17 23 25
23 34 38 26 43 -8 5 -7 10 3 18 19 15 25 51 7 40 -9 -5 -8 -2 2 11 16 20 17
25 2 34 -6 3 -12 13 -14 21 -3 17 -37 50 -50 50 -4 0 -7 5 -6 12 2 7 -11 13
-33 14 -33 1 -89 23 -62 24 6 0 14 9 18 20 3 11 12 19 18 17 7 -1 11 4 9 11
-1 8 1 11 6 8 5 -3 18 2 28 10 10 9 12 13 4 9 -8 -4 -1 6 15 20 17 15 24 24
18 21 -7 -4 -13 -2 -13 3 0 6 5 11 11 11 5 0 7 5 4 10 -3 6 -1 10 4 10 6 0 11
5 11 11 0 5 -6 7 -12 3 -9 -5 -8 -2 1 9 12 15 11 20 -4 37 -10 11 -14 24 -9
32 4 7 4 10 0 6 -10 -8 -40 20 -49 45 -4 9 -12 17 -19 17 -9 0 -8 -3 2 -10 9
-6 10 -10 3 -10 -6 0 -19 7 -27 16 -9 8 -16 12 -16 7 0 -14 -42 -13 -63 2 -18
12 -18 15 -4 20 9 4 13 13 10 21 -3 9 0 14 8 12 8 -2 13 3 11 11 -3 12 0 12
12 1 15 -12 18 -8 15 16 0 4 4 10 11 14 6 4 12 13 13 21 2 8 6 20 10 27 5 7 3
12 -3 12 -7 0 -8 6 0 19 6 13 7 22 0 26 -5 3 -7 12 -4 19 3 8 0 17 -5 21 -6 3
-8 11 -5 17 5 8 1 9 -10 5 -9 -4 -15 -3 -11 2 9 16 -7 41 -27 41 -13 0 -17 4
-12 13 6 9 4 9 -7 1 -8 -6 -27 -9 -42 -7 -16 2 -26 0 -23 -5 3 -5 -8 -8 -24
-7 -16 1 -27 -2 -24 -7 3 -4 1 -8 -5 -8 -14 0 -26 43 -12 48 6 2 11 10 11 17
0 8 4 17 10 20 6 4 7 -1 4 -12 -5 -14 -4 -15 4 -4 7 10 7 21 1 32 -5 11 -5 19
1 21 6 2 12 20 13 41 3 28 0 37 -12 38 -11 0 -12 2 -3 6 18 7 15 27 -8 43 -11
8 -20 21 -20 28 0 8 -6 12 -15 8 -8 -3 -15 -1 -15 5 0 6 -7 9 -15 5 -9 -3 -15
0 -15 9 0 8 -4 15 -10 15 -5 0 -10 7 -10 17 0 9 -3 14 -6 10 -4 -3 -12 0 -20
7 -7 7 -23 12 -36 9 -16 -3 -27 3 -37 19 -8 13 -21 34 -30 48 -9 13 -11 21 -5
17 13 -8 13 50 0 72 -6 10 -5 12 2 7 15 -9 15 -1 0 26 -19 32 -55 68 -62 61
-3 -4 -6 -1 -6 5 0 7 -5 12 -11 12 -5 0 -7 -6 -4 -12 4 -7 -1 -4 -9 6 -9 11
-16 15 -16 9 0 -6 -14 -13 -31 -17 -17 -3 -28 -10 -24 -16 4 -6 -1 -7 -11 -3
-14 5 -16 3 -11 -11 4 -9 3 -15 -2 -11 -5 3 -12 1 -16 -5 -3 -5 -1 -10 6 -10
7 0 3 -9 -9 -20 -25 -24 -36 -26 -28 -4 3 8 2 13 -2 10 -5 -3 -9 1 -9 9 0 8 4
12 9 9 15 -10 8 9 -9 23 -10 8 -12 11 -4 7 10 -5 12 -3 6 5 -4 7 -18 11 -31 8
-13 -2 -24 0 -24 5 0 6 -7 7 -16 4 -9 -3 -12 -2 -9 4 4 6 -4 20 -17 31 -13 11
-17 18 -10 14 6 -3 12 -4 12 -1 0 3 -13 12 -29 21 -23 11 -31 12 -34 2 -4 -9
-6 -8 -6 2 -1 11 -4 11 -18 0 -9 -8 -19 -13 -22 -12 -3 0 -5 -3 -4 -8 2 -4 -5
-5 -14 -2 -10 4 -14 2 -9 -5 3 -6 2 -13 -4 -17 -5 -3 -10 -17 -10 -30 0 -13
-5 -27 -10 -30 -8 -5 -7 -11 1 -21 10 -13 9 -15 -12 -11 -44 7 -109 30 -109
39 0 5 -9 4 -20 -2 -16 -9 -22 -8 -26 4 -5 14 -8 14 -21 1 -17 -17 -118 -22
-108 -5 3 6 1 10 -6 10 -7 0 -9 3 -6 7 4 3 -1 15 -10 26 -10 11 -12 17 -5 13
6 -4 12 -2 12 3 0 10 -14 15 -32 12 -5 0 -7 3 -5 8 1 5 -2 10 -8 12 -5 2 -18
10 -28 20 -10 9 -29 17 -43 17 -26 0 -57 -34 -47 -52 3 -6 3 -8 -2 -4 -4 4
-13 0 -20 -9 -9 -12 -18 -14 -41 -6 -23 7 -30 16 -32 41 -2 18 -8 30 -13 27
-5 -4 -9 -1 -9 5 0 6 -10 21 -21 33 -12 12 -19 15 -15 7 4 -8 0 -6 -8 4 -15
18 -20 15 -17 -9 1 -5 -5 -2 -12 7 -13 16 -15 16 -37 1 -13 -9 -21 -12 -17 -6
3 5 0 10 -7 10 -8 0 -12 -6 -9 -14 3 -7 0 -13 -6 -13 -6 0 -11 -7 -11 -15 0
-12 -13 -15 -56 -15 -35 0 -53 4 -49 10 4 6 -8 24 -25 40 -33 30 -46 38 -35
20 8 -13 -1 -13 -24 0 -13 6 -25 4 -41 -7z m60 -59 c0 -2 -9 -4 -20 -4 -11 0
-20 4 -20 9 0 5 9 7 20 4 11 -3 20 -7 20 -9z m270 -9 c10 -12 10 -15 -2 -15
-8 0 -15 7 -15 15 0 8 1 15 2 15 2 0 8 -7 15 -15z m230 -65 c6 9 13 8 34 -5
14 -9 23 -21 20 -26 -3 -5 0 -9 6 -9 6 0 8 -4 5 -10 -4 -6 -17 -4 -35 5 -16 8
-35 15 -43 15 -8 0 -18 7 -21 16 -3 8 -2 12 4 9 6 -3 11 2 11 12 1 16 2 16 6
-1 4 -14 7 -15 13 -6z m561 -25 c3 2 6 -6 6 -18 1 -12 7 -23 13 -25 5 -2 10
-10 10 -18 0 -9 4 -13 8 -10 4 2 14 0 22 -5 11 -7 8 -8 -10 -5 -14 3 -58 5
-99 5 -60 1 -71 3 -62 14 6 8 8 17 4 20 -3 4 2 9 11 13 9 3 14 10 11 15 -3 4
4 13 16 19 17 9 20 9 14 0 -5 -8 -3 -11 6 -8 8 3 13 12 11 19 -2 9 3 8 16 -4
10 -9 21 -15 23 -12z m281 -64 c-3 -9 -1 -12 6 -7 7 4 12 2 12 -3 0 -6 8 -11
18 -11 14 0 15 -2 2 -10 -14 -9 -7 -15 14 -11 5 1 4 -5 -4 -13 -7 -9 -9 -16
-6 -16 4 0 4 -5 1 -10 -4 -6 -18 -2 -36 11 -16 11 -37 22 -47 24 -9 2 -19 4
-22 5 -3 1 -8 2 -12 1 -13 -2 -9 17 7 32 8 8 12 16 10 18 -2 2 12 4 30 4 24 1
31 -3 27 -14z m-2124 -84 c15 9 19 8 19 -3 0 -20 -73 -87 -87 -79 -7 4 -8 11
-2 18 5 7 8 20 7 30 -2 9 1 15 5 12 5 -3 12 4 15 16 6 17 9 19 16 8 7 -11 12
-11 27 -2z m-235 -187 c4 0 6 4 3 8 -3 5 2 9 10 9 10 0 11 -4 4 -11 -5 -5 -10
-18 -10 -27 0 -18 -46 -79 -60 -79 -4 0 -11 7 -14 16 -4 10 -2 13 6 8 8 -5 9
-2 5 10 -4 11 1 28 13 43 11 14 17 30 13 37 -3 6 0 6 8 -1 7 -7 17 -13 22 -13z
m2547 -11 c0 -5 4 -8 9 -5 4 3 8 -5 7 -17 -1 -12 3 -25 9 -29 6 -5 4 -8 -5 -8
-13 0 -13 -1 0 -10 13 -8 13 -10 -1 -10 -10 0 -19 15 -26 45 -6 25 -6 45 -2
45 5 0 9 -5 9 -11z m-2757 -217 c-3 -12 -9 -22 -14 -22 -5 0 -6 -7 -3 -15 4
-9 1 -29 -6 -45 -12 -28 -14 -29 -25 -13 -8 11 -10 22 -4 29 5 6 6 14 2 17 -3
4 3 15 14 24 10 10 23 27 26 37 10 25 18 16 10 -12z m2847 -102 c13 -9 13 -10
0 -10 -8 -1 -4 -6 9 -11 18 -7 21 -12 12 -22 -8 -10 -7 -17 2 -27 9 -10 9 -11
0 -6 -8 5 -13 1 -13 -10 0 -33 -20 0 -29 49 -9 49 -6 53 19 37z m-3006 -146
c25 -10 19 -32 -19 -71 -28 -29 -37 -33 -49 -24 -30 25 30 94 66 76 7 -4 4 1
-6 9 -21 17 -18 20 8 10z m-164 -274 c0 -5 6 -10 14 -10 21 0 -1 -63 -33 -94
-26 -25 -27 -25 -39 -6 -9 14 -9 20 -1 20 8 0 7 6 -2 17 -10 11 -10 14 -1 9
11 -7 18 13 12 39 -1 6 1 7 5 3 9 -8 35 14 28 25 -2 4 1 7 6 7 6 0 11 -4 11
-10z m-121 -380 c0 -25 -3 -52 -7 -60 -9 -20 -33 -24 -26 -5 5 11 2 13 -12 8
-12 -4 -15 -3 -10 6 13 20 14 61 2 61 -6 0 -4 5 4 11 12 8 12 12 2 16 -10 4
-7 9 10 17 30 16 38 4 37 -54z m3531 -84 c0 -3 -4 -8 -10 -11 -5 -3 -10 -1
-10 4 0 6 5 11 10 11 6 0 10 -2 10 -4z m-3600 -167 c-12 -9 -11 -10 7 -6 13 3
24 -1 27 -9 6 -16 -12 -73 -30 -95 -8 -8 -14 -27 -14 -42 0 -14 -5 -29 -10
-32 -6 -4 -9 -2 -8 3 2 6 -1 10 -5 10 -12 1 -36 35 -31 44 3 5 2 8 -3 8 -4 0
-8 14 -8 30 0 17 3 30 8 30 4 0 6 3 6 8 -4 24 3 41 14 36 8 -3 20 2 27 11 7 8
18 15 24 15 6 0 4 -5 -4 -11z m2722 -183 c18 -20 16 -36 -5 -36 -8 0 -8 3 1 9
10 6 9 10 -7 14 -12 3 -21 12 -21 21 0 9 -4 16 -10 16 -5 0 -10 10 -10 22 0
22 0 22 17 -2 10 -14 25 -34 35 -44z m-2800 -168 c9 -24 -11 -148 -23 -148 -5
0 -9 5 -9 11 0 5 -4 8 -8 5 -4 -2 -9 7 -10 22 -2 15 -4 39 -6 55 -2 15 1 27 7
27 6 0 7 3 4 7 -4 3 1 12 11 19 22 17 29 17 34 2z m215 -310 c-3 -8 -6 -5 -6
6 -1 11 2 17 5 13 3 -3 4 -12 1 -19z m-248 -30 c1 -7 5 -47 8 -87 5 -71 4 -74
-13 -60 -11 8 -15 9 -10 2 5 -9 2 -11 -8 -7 -9 3 -16 12 -16 19 0 8 -5 17 -12
21 -7 5 -8 2 -3 -7 5 -8 5 -11 0 -7 -10 10 -14 78 -4 78 5 0 5 7 2 17 -5 12
-3 14 7 8 10 -6 12 -4 7 9 -4 9 -3 15 1 12 4 -2 14 -1 22 5 8 5 15 9 16 9 0 0
2 -6 3 -12z m617 -339 c3 -6 -1 -18 -10 -27 -15 -15 -16 -14 -16 11 0 27 13
36 26 16z m-646 -58 c0 -14 -30 -41 -43 -40 -8 0 -8 2 1 6 6 2 9 10 6 15 -4 6
-2 8 3 5 6 -4 13 0 17 8 6 17 16 20 16 6z m3110 -717 c0 -8 -19 -13 -24 -6 -3
5 1 9 9 9 8 0 15 -2 15 -3z m47 -30 c-2 -2 -27 -10 -55 -18 -50 -13 -51 -13
-37 7 13 19 29 26 63 29 6 1 12 6 12 12 0 6 5 3 11 -7 6 -10 9 -20 6 -23z
m273 -42 c1 8 6 6 14 -5 10 -13 15 -15 19 -5 2 7 4 1 4 -15 0 -19 -3 -25 -11
-18 -6 5 -13 9 -16 8 -3 -1 -17 9 -30 22 -24 22 -24 23 -2 12 17 -9 22 -9 22
1z m-565 -62 c-3 -6 1 -13 10 -17 10 -3 21 0 26 8 6 10 9 6 9 -13 0 -18 -8
-31 -22 -39 -12 -6 -32 -22 -45 -35 -26 -26 -43 -33 -24 -10 9 10 9 16 1 21
-8 5 -6 13 6 26 9 10 13 19 8 19 -5 0 0 7 10 15 11 8 16 15 12 15 -4 0 -4 5
-1 10 3 6 8 10 11 10 3 0 2 -5 -1 -10z m833 -215 c-3 -3 -9 2 -12 12 -6 14 -5
15 5 6 7 -7 10 -15 7 -18z m-1008 -3 c0 -17 -39 -47 -85 -65 -18 -7 -18 -6 3
13 12 11 22 27 22 35 0 9 6 12 17 8 11 -4 14 -3 9 5 -5 8 -2 10 8 6 9 -3 16
-1 16 5 0 6 2 11 5 11 3 0 5 -8 5 -18z m-761 -219 c-3 -20 2 -34 11 -28 6 3
10 -3 10 -14 0 -10 6 -22 13 -25 6 -4 -5 -4 -26 -2 -22 3 -45 10 -53 17 -12
10 -10 15 13 35 30 26 34 28 32 17z m276 -50 c14 -13 14 -18 3 -23 -34 -19
-56 -20 -62 -5 -3 9 -2 14 3 11 5 -3 11 3 14 14 6 24 20 25 42 3z m-1562 -69
c8 -8 -3 -34 -15 -34 -5 0 -6 5 -3 10 3 6 1 10 -4 10 -6 0 -11 5 -11 10 0 11
23 14 33 4z m2031 -529 c-4 -8 -11 -15 -16 -15 -6 0 -5 6 2 15 7 8 14 15 16
15 2 0 1 -7 -2 -15z m-1314 -65 c0 -5 -7 -7 -15 -4 -8 4 -15 8 -15 10 0 2 7 4
15 4 8 0 15 -4 15 -10z"/>
<path d="M7826 6452 c-3 -5 1 -9 9 -9 8 0 12 4 9 9 -3 4 -7 8 -9 8 -2 0 -6 -4
-9 -8z"/>
<path d="M2940 2986 c0 -2 8 -10 18 -17 15 -13 16 -12 3 4 -13 16 -21 21 -21
13z"/>
</g>
</svg>
